<?xml version="1.0" encoding="UTF-8" standalone="no"?>
<!-- Created with Inkscape (http://www.inkscape.org/) -->

<svg
   xmlns:dc="http://purl.org/dc/elements/1.1/"
   xmlns:cc="http://creativecommons.org/ns#"
   xmlns:rdf="http://www.w3.org/1999/02/22-rdf-syntax-ns#"
   xmlns:svg="http://www.w3.org/2000/svg"
   xmlns="http://www.w3.org/2000/svg"
   xmlns:xlink="http://www.w3.org/1999/xlink"
   xmlns:sodipodi="http://sodipodi.sourceforge.net/DTD/sodipodi-0.dtd"
   xmlns:inkscape="http://www.inkscape.org/namespaces/inkscape"
   width="91.993095mm"
   height="27.445269mm"
   viewBox="0 0 325.95979 97.247016"
   id="svg8864"
   version="1.1"
   inkscape:version="0.92.3 (2405546, 2018-03-11)"
   sodipodi:docname="UnpackPush.svg"
   inkscape:export-filename="C:\Users\Sylvain\.babun\cygwin\home\Sylvain\Workspaces\beepbeep-3-examples\Source\src\doc-files\util\UnpackPush.png"
   inkscape:export-xdpi="48"
   inkscape:export-ydpi="48">
  <sodipodi:namedview
     id="base"
     pagecolor="#ffffff"
     bordercolor="#666666"
     borderopacity="1.0"
     inkscape:pageopacity="0.0"
     inkscape:pageshadow="2"
     inkscape:zoom="0.94019461"
     inkscape:cx="-167.31829"
     inkscape:cy="87.988766"
     inkscape:document-units="px"
     inkscape:current-layer="layer1"
     showgrid="false"
     fit-margin-top="1"
     fit-margin-left="1"
     fit-margin-right="1"
     fit-margin-bottom="1"
     inkscape:window-width="1920"
     inkscape:window-height="1052"
     inkscape:window-x="0"
     inkscape:window-y="0"
     inkscape:window-maximized="1" />
  <defs
     id="defs8866">
    <pattern
       id="pattern10938-758-124-313-9"
       patternTransform="translate(105.32577,298.98598)"
       height="22.497425"
       width="13.498456"
       patternUnits="userSpaceOnUse">
      <rect
         style="fill:url(#pattern10936-906-732-194-0);stroke:none"
         width="13.498456"
         height="22.497425"
         x="2.7339242e-015"
         y="-2.8144154e-014"
         id="rect12091-2-5" />
    </pattern>
    <pattern
       patternTransform="matrix(0.3213918,0,0,0.32139182,2.4829098e-6,-1.2431639e-5)"
       id="pattern10936-906-732-194-0"
       xlink:href="#pattern10926-828-791-730-6"
       inkscape:collect="always" />
    <pattern
       id="pattern10926-828-791-730-6"
       patternTransform="translate(105.32577,298.98598)"
       height="69.999989"
       width="41.999994"
       patternUnits="userSpaceOnUse">
      <path
         inkscape:connector-curvature="0"
         style="opacity:1;fill:#008080;fill-opacity:1;fill-rule:nonzero;stroke:none;stroke-width:2;stroke-linecap:round;stroke-linejoin:round;stroke-miterlimit:4;stroke-dasharray:6, 2;stroke-dashoffset:0;stroke-opacity:1"
         d="m 41.999994,6.9999993 a 13.999999,14 0 0 0 -0.99023,0.03515 13.999999,14 0 0 0 -1.38868,0.16797 13.999999,14 0 0 0 -1.365229,0.30664 13.999999,14 0 0 0 -1.32813,0.4414099 13.999999,14 0 0 0 -1.27734,0.57226 13.999999,14 0 0 0 -1.21484,0.6953199 13.999999,14 0 0 0 -1.13867,0.8144499 13.999999,14 0 0 0 -1.05079,0.92383 13.999999,14 0 0 0 -0.953119,1.02344 13.999999,14 0 0 0 -0.84766,1.11523 13.999999,14 0 0 0 -0.73242,1.19141 13.999999,14 0 0 0 -0.60742,1.261709 13.999999,14 0 0 0 -0.48047,1.31446 13.999999,14 0 0 0 -0.3457,1.35547 13.999999,14 0 0 0 -0.20899,1.38281 13.999999,14 0 0 0 -0.07031,1.39844 13.999999,14 0 0 0 0.03516,0.99023 13.999999,14 0 0 0 0.16796,1.38867 13.999999,14 0 0 0 0.30665,1.36524 13.999999,14 0 0 0 0.4414,1.328119 13.999999,14 0 0 0 0.57227,1.27735 13.999999,14 0 0 0 0.69531,1.21484 13.999999,14 0 0 0 0.81445,1.13867 13.999999,14 0 0 0 0.923829,1.05078 13.999999,14 0 0 0 1.02344,0.95313 13.999999,14 0 0 0 1.11523,0.84765 13.999999,14 0 0 0 1.19141,0.73047 13.999999,14 0 0 0 1.26172,0.60938 13.999999,14 0 0 0 1.31445,0.48047 13.999999,14 0 0 0 1.355469,0.3457 13.999999,14 0 0 0 1.38281,0.20898 13.999999,14 0 0 0 1.39844,0.07032 l 0,-27.9999977 z"
         id="path12095-9" />
      <path
         inkscape:connector-curvature="0"
         style="opacity:1;fill:#de87aa;fill-opacity:1;fill-rule:nonzero;stroke:none;stroke-width:2;stroke-linecap:round;stroke-linejoin:round;stroke-miterlimit:4;stroke-dasharray:6, 2;stroke-dashoffset:0;stroke-opacity:1"
         d="m 0,0 0,6.9999993 a 13.999997,13.999999 0 0 1 1.3984398,0.07031 13.999997,13.999999 0 0 1 1.3828098,0.20898 13.999997,13.999999 0 0 1 1.3554698,0.3457099 13.999997,13.999999 0 0 1 1.3144498,0.48047 13.999997,13.999999 0 0 1 1.2617198,0.6074199 13.999997,13.999999 0 0 1 1.1914099,0.73242 13.999997,13.999999 0 0 1 1.1152298,0.8476599 13.999997,13.999999 0 0 1 1.0234403,0.95312 13.999997,13.999999 0 0 1 0.923829,1.05078 13.999997,13.999999 0 0 1 0.81445,1.13867 13.999997,13.999999 0 0 1 0.69531,1.21485 13.999997,13.999999 0 0 1 0.57227,1.277339 13.999997,13.999999 0 0 1 0.4414,1.32617 13.999997,13.999999 0 0 1 0.30665,1.36719 13.999997,13.999999 0 0 1 0.16796,1.38867 13.999997,13.999999 0 0 1 0.03516,0.99024 13.999997,13.999999 0 0 1 -0.07031,1.39843 13.999997,13.999999 0 0 1 -0.20899,1.38282 13.999997,13.999999 0 0 1 -0.3457,1.35546 13.999997,13.999999 0 0 1 -0.48047,1.314459 13.999997,13.999999 0 0 1 -0.60742,1.25976 13.999997,13.999999 0 0 1 -0.73242,1.19336 13.999997,13.999999 0 0 1 -0.84766,1.11524 13.999997,13.999999 0 0 1 -0.9531194,1.02344 13.999997,13.999999 0 0 1 -1.0507898,0.92382 13.999997,13.999999 0 0 1 -1.1386699,0.81446 13.999997,13.999999 0 0 1 -1.2148398,0.69531 13.999997,13.999999 0 0 1 -1.2773398,0.57226 13.999997,13.999999 0 0 1 -1.3281298,0.44141 13.999997,13.999999 0 0 1 -1.3652298,0.30664 13.999997,13.999999 0 0 1 -1.38867984,0.16797 A 13.999997,13.999999 0 0 1 0,34.999997 l 0,34.999992 41.999994,0 0,-34.999992 a 13.999999,14 0 0 1 -1.39844,-0.07032 13.999999,14 0 0 1 -1.38281,-0.20898 13.999999,14 0 0 1 -1.355469,-0.3457 13.999999,14 0 0 1 -1.31445,-0.48047 13.999999,14 0 0 1 -1.26172,-0.60938 13.999999,14 0 0 1 -1.19141,-0.73047 13.999999,14 0 0 1 -1.11523,-0.84765 13.999999,14 0 0 1 -1.02344,-0.95313 13.999999,14 0 0 1 -0.923829,-1.05078 13.999999,14 0 0 1 -0.81445,-1.13867 13.999999,14 0 0 1 -0.69531,-1.21484 13.999999,14 0 0 1 -0.57227,-1.27735 13.999999,14 0 0 1 -0.4414,-1.328119 13.999999,14 0 0 1 -0.30665,-1.36524 13.999999,14 0 0 1 -0.16796,-1.38867 13.999999,14 0 0 1 -0.03516,-0.99023 13.999999,14 0 0 1 0.07031,-1.39844 13.999999,14 0 0 1 0.20899,-1.38281 13.999999,14 0 0 1 0.3457,-1.35547 13.999999,14 0 0 1 0.48047,-1.31446 13.999999,14 0 0 1 0.60742,-1.261709 13.999999,14 0 0 1 0.73242,-1.19141 13.999999,14 0 0 1 0.84766,-1.11523 13.999999,14 0 0 1 0.953119,-1.02344 13.999999,14 0 0 1 1.05079,-0.92383 13.999999,14 0 0 1 1.13867,-0.8144499 13.999999,14 0 0 1 1.21484,-0.6953199 13.999999,14 0 0 1 1.27734,-0.57226 13.999999,14 0 0 1 1.32813,-0.4414099 13.999999,14 0 0 1 1.365229,-0.30664 13.999999,14 0 0 1 1.38868,-0.16797 13.999999,14 0 0 1 0.99023,-0.03515 L 41.999994,0 0,0 Z"
         id="path12097-4" />
      <circle
         r="14.000001"
         style="opacity:1;fill:#008080;fill-opacity:1;fill-rule:nonzero;stroke:none;stroke-width:2;stroke-linecap:round;stroke-linejoin:round;stroke-miterlimit:4;stroke-dasharray:6.00000011, 2.00000002;stroke-dashoffset:0;stroke-opacity:1"
         id="circle12099-9"
         cx="21.000109"
         cy="55.999813" />
      <path
         inkscape:connector-curvature="0"
         style="opacity:1;fill:#008080;fill-opacity:1;fill-rule:nonzero;stroke:none;stroke-width:2;stroke-linecap:round;stroke-linejoin:round;stroke-miterlimit:4;stroke-dasharray:6, 2;stroke-dashoffset:0;stroke-opacity:1"
         d="m 0,34.999997 a 13.999999,14 0 0 0 0.99022986,-0.03516 13.999999,14 0 0 0 1.38867984,-0.16797 13.999999,14 0 0 0 1.3652298,-0.30664 13.999999,14 0 0 0 1.3281298,-0.44141 13.999999,14 0 0 0 1.2773398,-0.57226 13.999999,14 0 0 0 1.2148398,-0.69531 13.999999,14 0 0 0 1.1386699,-0.81446 13.999999,14 0 0 0 1.0507898,-0.92382 13.999999,14 0 0 0 0.9531194,-1.02344 13.999999,14 0 0 0 0.84766,-1.11524 13.999999,14 0 0 0 0.73242,-1.19336 13.999999,14 0 0 0 0.60742,-1.25976 13.999999,14 0 0 0 0.48047,-1.314459 13.999999,14 0 0 0 0.3457,-1.35546 13.999999,14 0 0 0 0.20899,-1.38282 13.999999,14 0 0 0 0.07031,-1.39843 13.999999,14 0 0 0 -0.03516,-0.99024 13.999999,14 0 0 0 -0.16796,-1.38867 13.999999,14 0 0 0 -0.30665,-1.36719 13.999999,14 0 0 0 -0.4414,-1.32617 13.999999,14 0 0 0 -0.57227,-1.277339 13.999999,14 0 0 0 -0.69531,-1.21485 13.999999,14 0 0 0 -0.81445,-1.13867 13.999999,14 0 0 0 -0.923829,-1.05078 A 13.999999,14 0 0 0 9.0195287,10.292969 13.999999,14 0 0 0 7.9042989,9.4453091 13.999999,14 0 0 0 6.712889,8.7128891 13.999999,14 0 0 0 5.4511692,8.1054692 13.999999,14 0 0 0 4.1367194,7.6249992 13.999999,14 0 0 0 2.7812496,7.2792893 13.999999,14 0 0 0 1.3984398,7.0703093 13.999999,14 0 0 0 0,6.9999993 L 0,34.999997 Z"
         id="path12101-8-4" />
    </pattern>
    <pattern
       patternUnits="userSpaceOnUse"
       width="15.118176"
       height="15.118209"
       patternTransform="matrix(0.93750005,0,0,0.93750005,-661.59741,468.1662)"
       id="pattern14959-3">
      <rect
         style="display:inline;opacity:1;fill:#de87aa;fill-opacity:1;stroke:none;stroke-width:2.01130414;stroke-miterlimit:4;stroke-dasharray:none"
         id="rect14947-6"
         width="15.118112"
         height="15.118112"
         x="6.5104163e-05"
         y="9.7656244e-05" />
      <path
         style="opacity:1;fill:#008080;fill-opacity:1;stroke:none;stroke-width:2.51413012;stroke-miterlimit:4;stroke-dasharray:none"
         id="path14949-0"
         sodipodi:type="arc"
         sodipodi:cx="0"
         sodipodi:cy="0"
         sodipodi:rx="3.7795277"
         sodipodi:ry="3.7795277"
         sodipodi:start="0"
         sodipodi:end="1.5707963"
         d="M 3.7795277,0 A 3.7795277,3.7795277 0 0 1 1.0127205e-7,3.7795277 L 0,0 Z" />
      <circle
         r="3.7795277"
         cy="7.5590491"
         cx="7.559114"
         id="circle14951-6"
         style="opacity:1;fill:#008080;fill-opacity:1;stroke:none;stroke-width:2.51413012;stroke-miterlimit:4;stroke-dasharray:none" />
      <path
         d="m -11.338635,0 a 3.7795277,3.7795277 0 0 1 -3.779528,3.7795277 l 0,-3.7795277 z"
         sodipodi:end="1.5707963"
         sodipodi:start="0"
         sodipodi:ry="3.7795277"
         sodipodi:rx="3.7795277"
         sodipodi:cy="0"
         sodipodi:cx="-15.118163"
         sodipodi:type="arc"
         id="path14953-2"
         style="opacity:1;fill:#008080;fill-opacity:1;stroke:none;stroke-width:2.51413012;stroke-miterlimit:4;stroke-dasharray:none"
         transform="scale(-1,1)" />
      <path
         d="M 3.7795277,-15.118098 A 3.7795277,3.7795277 0 0 1 1.0127205e-7,-11.338571 L 0,-15.118098 Z"
         sodipodi:end="1.5707963"
         sodipodi:start="0"
         sodipodi:ry="3.7795277"
         sodipodi:rx="3.7795277"
         sodipodi:cy="-15.118098"
         sodipodi:cx="0"
         sodipodi:type="arc"
         id="path14955-6"
         style="opacity:1;fill:#008080;fill-opacity:1;stroke:none;stroke-width:2.51413012;stroke-miterlimit:4;stroke-dasharray:none"
         transform="scale(1,-1)" />
      <path
         transform="scale(-1)"
         style="opacity:1;fill:#008080;fill-opacity:1;stroke:none;stroke-width:2.51413012;stroke-miterlimit:4;stroke-dasharray:none"
         id="path14957-1"
         sodipodi:type="arc"
         sodipodi:cx="-15.118163"
         sodipodi:cy="-15.118098"
         sodipodi:rx="3.7795277"
         sodipodi:ry="3.7795277"
         sodipodi:start="0"
         sodipodi:end="1.5707963"
         d="m -11.338635,-15.118098 a 3.7795277,3.7795277 0 0 1 -3.779528,3.779527 l 0,-3.779527 z" />
    </pattern>
  </defs>
  <metadata
     id="metadata8869">
    <rdf:RDF>
      <cc:Work
         rdf:about="">
        <dc:format>image/svg+xml</dc:format>
        <dc:type
           rdf:resource="http://purl.org/dc/dcmitype/StillImage" />
        <dc:title />
      </cc:Work>
    </rdf:RDF>
  </metadata>
  <g
     inkscape:label="Layer 1"
     inkscape:groupmode="layer"
     id="layer1"
     transform="translate(146.687,-198.06615)">
    <rect
       style="opacity:1;fill:#008080;fill-opacity:1;fill-rule:nonzero;stroke:#000000;stroke-width:2;stroke-linecap:round;stroke-linejoin:round;stroke-miterlimit:4;stroke-dasharray:none;stroke-dashoffset:0;stroke-opacity:1"
       id="rect16311"
       width="178.68642"
       height="38.289944"
       x="-25.897612"
       y="227.54468"
       ry="3.99263" />
    <g
       id="g16315"
       transform="translate(63.371121,-177.96126)">
      <g
         id="g21383"
         transform="translate(-224.41373,-282.69729)"
         style="display:inline;fill:#008080;fill-opacity:1;stroke:#000000">
        <rect
           transform="matrix(0,1,1,0,0,0)"
           y="97.915009"
           x="687.36249"
           height="77.252121"
           width="39.971428"
           id="rect21385"
           style="color:#000000;display:inline;overflow:visible;visibility:visible;fill:#008080;fill-opacity:1;fill-rule:nonzero;stroke:#000000;stroke-width:2.49583793;stroke-miterlimit:4;stroke-dasharray:none;stroke-dashoffset:0;marker:none;enable-background:accumulate" />
        <rect
           transform="matrix(0,1,1,0,0,0)"
           style="color:#000000;display:inline;overflow:visible;visibility:visible;fill:#008080;fill-opacity:1;fill-rule:nonzero;stroke:#000000;stroke-width:2.49583793;stroke-miterlimit:4;stroke-dasharray:none;stroke-dashoffset:0;marker:none;enable-background:accumulate"
           id="rect21387"
           width="47.343639"
           height="22.626621"
           x="683.67639"
           y="166.82719" />
      </g>
      <g
         style="display:inline;fill:url(#pattern10938-758-124-313-9);fill-opacity:1;stroke:#000000"
         transform="translate(-254.30402,-282.69729)"
         id="g21369">
        <rect
           transform="matrix(0,1,-1,0,0,0)"
           y="-140.57593"
           x="687.36249"
           height="77.252121"
           width="39.971428"
           id="rect21371"
           style="color:#000000;display:inline;overflow:visible;visibility:visible;fill:url(#pattern10938-758-124-313-9);fill-opacity:1;fill-rule:nonzero;stroke:#000000;stroke-width:2.49583793;stroke-miterlimit:4;stroke-dasharray:none;stroke-dashoffset:0;marker:none;enable-background:accumulate" />
        <rect
           transform="matrix(0,1,-1,0,0,0)"
           style="color:#000000;display:inline;overflow:visible;visibility:visible;fill:url(#pattern10938-758-124-313-9);fill-opacity:1;fill-rule:nonzero;stroke:#000000;stroke-width:2.49583793;stroke-miterlimit:4;stroke-dasharray:none;stroke-dashoffset:0;marker:none;enable-background:accumulate"
           id="rect21373"
           width="47.343639"
           height="22.626621"
           x="683.67639"
           y="-71.663742" />
      </g>
      <path
         inkscape:transform-center-x="-2.0636749"
         transform="matrix(0,0.16341147,-0.30349061,0,-85.176566,419.16496)"
         d="m 57.12662,378.81889 -47.110379,0 23.555189,-40.79878 z"
         inkscape:randomized="0"
         inkscape:rounded="0"
         inkscape:flatsided="true"
         sodipodi:arg2="1.5707963"
         sodipodi:arg1="0.52359878"
         sodipodi:r2="13.599595"
         sodipodi:r1="27.19919"
         sodipodi:cy="365.2193"
         sodipodi:cx="33.57143"
         sodipodi:sides="3"
         id="path21375"
         style="display:inline;opacity:1;fill:#ff0000;fill-opacity:1;stroke:#000000;stroke-width:7.47155905;stroke-linecap:round;stroke-linejoin:round;stroke-miterlimit:4;stroke-dasharray:none;stroke-dashoffset:0;stroke-opacity:1"
         sodipodi:type="star" />
      <path
         style="color:#000000;display:inline;overflow:visible;visibility:visible;fill:#93ac93;fill-opacity:1;fill-rule:nonzero;stroke:#0b280b;stroke-width:2.02200007;stroke-miterlimit:4;stroke-dasharray:none;stroke-dashoffset:0;marker:none;enable-background:accumulate"
         d="m -166.96674,380.58172 0,88.1384 10.54105,0 73.581861,0 8.81384,0 0,-88.1384 -8.81384,0 -73.581861,0 -10.54105,0 z"
         id="path15971"
         inkscape:connector-curvature="0" />
      <path
         inkscape:connector-curvature="0"
         id="rect15638"
         d="m -141.35427,391.31682 -3.17851,1.1383 5.06498,14.3201 3e-5,51.8219 3.37281,0 -3e-5,-51.1502 0.39541,-0.1413 -0.39541,-1.1179 0,-1.2166 -0.43002,0 -4.82926,-13.6543 z"
         style="display:inline;opacity:1;fill:#cccccc;fill-opacity:1;stroke:#000000;stroke-width:2;stroke-linecap:round;stroke-linejoin:round;stroke-miterlimit:4;stroke-dasharray:none;stroke-dashoffset:0;stroke-opacity:1" />
      <rect
         transform="matrix(0,-1,1,0,0,0)"
         style="display:inline;opacity:1;fill:#cccccc;fill-opacity:1;stroke:#000000;stroke-width:2;stroke-linecap:round;stroke-linejoin:round;stroke-miterlimit:4;stroke-dasharray:none;stroke-dashoffset:0;stroke-opacity:1"
         id="rect15640"
         width="3.3940663"
         height="24.290125"
         x="-452.82742"
         y="-136.06758" />
      <rect
         ry="2.7152531"
         y="427.63004"
         x="-134.63722"
         height="20.364397"
         width="15.518689"
         id="rect15642"
         style="display:inline;opacity:1;fill:#eeffaa;fill-opacity:1;stroke:#000000;stroke-width:2;stroke-linecap:round;stroke-linejoin:round;stroke-miterlimit:4;stroke-dasharray:none;stroke-dashoffset:0;stroke-opacity:1" />
      <rect
         style="display:inline;opacity:1;fill:#eeffaa;fill-opacity:1;stroke:#000000;stroke-width:2;stroke-linecap:round;stroke-linejoin:round;stroke-miterlimit:4;stroke-dasharray:none;stroke-dashoffset:0;stroke-opacity:1"
         id="rect15644"
         width="15.518689"
         height="20.364397"
         x="-134.63722"
         y="406.58682"
         ry="2.7152531" />
      <g
         transform="matrix(0.49254968,0,0,0.49553368,-445.11893,-122.2767)"
         id="g15650"
         style="display:inline">
        <circle
           style="opacity:1;fill:#333333;fill-opacity:1;stroke:#000000;stroke-width:4.04825974;stroke-linecap:round;stroke-linejoin:round;stroke-miterlimit:4;stroke-dasharray:none;stroke-dashoffset:0;stroke-opacity:1"
           id="path15646"
           cx="600.8493"
           cy="1149.1506"
           r="20.547945" />
        <circle
           r="12.328767"
           cy="1149.1506"
           cx="600.8493"
           id="circle15648"
           style="opacity:1;fill:#e6e6e6;fill-opacity:1;stroke:#000000;stroke-width:4.04825974;stroke-linecap:round;stroke-linejoin:round;stroke-miterlimit:4;stroke-dasharray:none;stroke-dashoffset:0;stroke-opacity:1" />
      </g>
      <rect
         ry="2.7152531"
         y="438.06949"
         x="-95.145393"
         height="20.364397"
         width="15.518689"
         id="rect15657"
         style="display:inline;opacity:1;fill:#eeffaa;fill-opacity:1;stroke:#000000;stroke-width:2;stroke-linecap:round;stroke-linejoin:round;stroke-miterlimit:4;stroke-dasharray:none;stroke-dashoffset:0;stroke-opacity:1" />
      <g
         id="g20999"
         style="display:inline"
         transform="translate(-821.88131,-711.67538)">
        <path
           inkscape:connector-curvature="0"
           id="path15659"
           d="m 714.90039,1105.9141 c -6.33524,0.2291 -10.95508,7.2304 -10.95508,7.2304 l 0.82813,0.5606 c 0,0 4.56816,-6.5887 10.16406,-6.791 2.79795,-0.1012 5.93511,1.2988 9.14062,6.0625 3.20552,4.7636 6.4063,12.8812 9.14258,26.0039 l 0.97852,-0.2032 c -2.75118,-13.1941 -5.96455,-21.416 -9.29102,-26.3593 -3.32646,-4.9434 -6.84019,-6.6185 -10.00781,-6.5039 z"
           style="color:#000000;font-style:normal;font-variant:normal;font-weight:normal;font-stretch:normal;font-size:medium;line-height:normal;font-family:sans-serif;text-indent:0;text-align:start;text-decoration:none;text-decoration-line:none;text-decoration-style:solid;text-decoration-color:#000000;letter-spacing:normal;word-spacing:normal;text-transform:none;direction:ltr;block-progression:tb;writing-mode:lr-tb;baseline-shift:baseline;text-anchor:start;white-space:normal;clip-rule:nonzero;display:inline;overflow:visible;visibility:visible;opacity:1;isolation:auto;mix-blend-mode:normal;color-interpolation:sRGB;color-interpolation-filters:linearRGB;solid-color:#000000;solid-opacity:1;fill:#000000;fill-opacity:1;fill-rule:evenodd;stroke:none;stroke-width:1px;stroke-linecap:butt;stroke-linejoin:miter;stroke-miterlimit:4;stroke-dasharray:none;stroke-dashoffset:0;stroke-opacity:1;color-rendering:auto;image-rendering:auto;shape-rendering:auto;text-rendering:auto;enable-background:accumulate" />
        <path
           inkscape:connector-curvature="0"
           style="fill:#000000;fill-opacity:1;fill-rule:evenodd;stroke:#000000;stroke-width:0.8pt;stroke-opacity:1"
           d="m 731.66809,1129.0892 -4.73228,-3.0993 6.77353,12.8887 1.05802,-14.5217 -3.09927,4.7323 z"
           id="path21005" />
      </g>
      <path
         inkscape:transform-center-x="-2.063677"
         transform="matrix(0,0.16341147,-0.30349061,0,62.503791,419.16492)"
         d="m 57.12662,378.81889 -47.110379,0 23.555189,-40.79878 z"
         inkscape:randomized="0"
         inkscape:rounded="0"
         inkscape:flatsided="true"
         sodipodi:arg2="1.5707963"
         sodipodi:arg1="0.52359878"
         sodipodi:r2="13.599595"
         sodipodi:r1="27.19919"
         sodipodi:cy="365.2193"
         sodipodi:cx="33.57143"
         sodipodi:sides="3"
         id="path21389"
         style="display:inline;opacity:1;fill:#00ff00;fill-opacity:1;stroke:#000000;stroke-width:7.47155905;stroke-linecap:round;stroke-linejoin:round;stroke-miterlimit:4;stroke-dasharray:none;stroke-dashoffset:0;stroke-opacity:1"
         sodipodi:type="star" />
    </g>
    <g
       id="g16920"
       transform="translate(-12.763315,-157.64197)">
      <g
         style="display:inline;fill:#008080;fill-opacity:1"
         transform="translate(31.226546,-303.01655)"
         id="g6184">
        <rect
           transform="matrix(0,1,-1,0,0,0)"
           y="-140.57593"
           x="687.36249"
           height="77.252121"
           width="39.971428"
           id="rect6186"
           style="color:#000000;display:inline;overflow:visible;visibility:visible;fill:#008080;fill-opacity:1;fill-rule:nonzero;stroke:#0b280b;stroke-width:2.49583793;stroke-miterlimit:4;stroke-dasharray:none;stroke-dashoffset:0;marker:none;enable-background:accumulate" />
        <rect
           transform="matrix(0,1,-1,0,0,0)"
           style="color:#000000;display:inline;overflow:visible;visibility:visible;fill:#008080;fill-opacity:1;fill-rule:nonzero;stroke:#0b280b;stroke-width:2.49583793;stroke-miterlimit:4;stroke-dasharray:none;stroke-dashoffset:0;marker:none;enable-background:accumulate"
           id="rect6188"
           width="47.343639"
           height="22.626621"
           x="683.67639"
           y="-71.663742" />
      </g>
      <path
         inkscape:transform-center-x="-2.0636753"
         transform="matrix(0,0.16341147,-0.30349061,0,200.35399,398.84574)"
         d="m 57.12662,378.81889 -47.110379,0 23.555189,-40.79878 z"
         inkscape:randomized="0"
         inkscape:rounded="0"
         inkscape:flatsided="true"
         sodipodi:arg2="1.5707963"
         sodipodi:arg1="0.52359878"
         sodipodi:r2="13.599595"
         sodipodi:r1="27.19919"
         sodipodi:cy="365.2193"
         sodipodi:cx="33.57143"
         sodipodi:sides="3"
         id="path6198"
         style="display:inline;opacity:1;fill:#ff0000;fill-opacity:1;stroke:#000000;stroke-width:7.47155905;stroke-linecap:round;stroke-linejoin:round;stroke-miterlimit:4;stroke-dasharray:none;stroke-dashoffset:0;stroke-opacity:1"
         sodipodi:type="star" />
      <g
         transform="translate(-505.35907,-819.78263)"
         id="g6291"
         style="display:inline">
        <path
           style="color:#000000;display:inline;overflow:visible;visibility:visible;fill:#93ac93;fill-opacity:1;fill-rule:nonzero;stroke:#0b280b;stroke-width:2.63824439;stroke-miterlimit:4;stroke-dasharray:none;stroke-dashoffset:0;marker:none;enable-background:accumulate"
           d="m 619.171,1187.4334 0,73.3617 8.32082,0 58.08352,0 6.95741,0 0,-73.3617 -6.95741,0 -58.08352,0 -8.32082,0 z"
           id="path6212"
           inkscape:connector-curvature="0" />
        <g
           id="g6280"
           transform="translate(-0.49476654,2.400811)">
          <rect
             style="opacity:1;fill:#d3bc5f;fill-opacity:1;stroke:#000000;stroke-width:1.29999995;stroke-linecap:round;stroke-linejoin:round;stroke-miterlimit:4;stroke-dasharray:none;stroke-dashoffset:0;stroke-opacity:1"
             id="rect6256"
             width="41.972069"
             height="15.085891"
             x="635.3606"
             y="1205.0841"
             ry="3.10991" />
          <rect
             ry="0"
             y="1196.559"
             x="639.42657"
             height="15.152389"
             width="33.840111"
             id="rect6228"
             style="opacity:1;fill:#ffffff;fill-opacity:1;stroke:#000000;stroke-width:1.29999995;stroke-linecap:round;stroke-linejoin:round;stroke-miterlimit:4;stroke-dasharray:none;stroke-dashoffset:0;stroke-opacity:1" />
          <rect
             ry="3.10991"
             y="1215.4413"
             x="635.3606"
             height="15.085891"
             width="41.972069"
             id="rect6258"
             style="opacity:1;fill:#ffeeaa;fill-opacity:1;stroke:#000000;stroke-width:1.29999995;stroke-linecap:round;stroke-linejoin:round;stroke-miterlimit:4;stroke-dasharray:none;stroke-dashoffset:0;stroke-opacity:1" />
          <rect
             ry="3.10991"
             y="1207.9412"
             x="632.8606"
             height="15.621451"
             width="46.972092"
             id="rect6226"
             style="opacity:1;fill:#ffeeaa;fill-opacity:1;stroke:#000000;stroke-width:1.29999995;stroke-linecap:round;stroke-linejoin:round;stroke-miterlimit:4;stroke-dasharray:none;stroke-dashoffset:0;stroke-opacity:1" />
          <rect
             style="opacity:1;fill:#ffffff;fill-opacity:1;stroke:#000000;stroke-width:1.29999995;stroke-linecap:round;stroke-linejoin:round;stroke-miterlimit:4;stroke-dasharray:none;stroke-dashoffset:0;stroke-opacity:1"
             id="rect6230"
             width="33.840111"
             height="20.708128"
             x="639.42657"
             y="1226.1598"
             ry="0" />
          <path
             sodipodi:nodetypes="cc"
             inkscape:connector-curvature="0"
             id="path6232"
             d="m 644.9824,1231.736 18.97843,0"
             style="fill:none;fill-rule:evenodd;stroke:#000000;stroke-width:1px;stroke-linecap:butt;stroke-linejoin:miter;stroke-opacity:1" />
          <path
             style="fill:none;fill-rule:evenodd;stroke:#000000;stroke-width:1px;stroke-linecap:butt;stroke-linejoin:miter;stroke-opacity:1"
             d="m 644.9824,1236.5343 22.72843,0"
             id="path6234"
             inkscape:connector-curvature="0" />
          <path
             sodipodi:nodetypes="cc"
             inkscape:connector-curvature="0"
             id="path6236"
             d="m 644.9824,1241.3325 16.29986,0"
             style="fill:none;fill-rule:evenodd;stroke:#000000;stroke-width:1px;stroke-linecap:butt;stroke-linejoin:miter;stroke-opacity:1" />
          <circle
             r="1.9642857"
             cy="1217.1786"
             cx="672.32141"
             id="path6238"
             style="opacity:1;fill:#000000;fill-opacity:1;stroke:none;stroke-width:1.29999995;stroke-linecap:round;stroke-linejoin:round;stroke-miterlimit:4;stroke-dasharray:none;stroke-dashoffset:0;stroke-opacity:1" />
        </g>
      </g>
    </g>
    <rect
       ry="3.99263"
       y="227.54468"
       x="-25.897612"
       height="38.289944"
       width="178.68642"
       id="rect16938"
       style="opacity:1;fill:#008080;fill-opacity:1;fill-rule:nonzero;stroke:#000000;stroke-width:2;stroke-linecap:round;stroke-linejoin:round;stroke-miterlimit:4;stroke-dasharray:none;stroke-dashoffset:0;stroke-opacity:1" />
    <g
       id="g16942"
       transform="translate(-161.04261,-460.65855)"
       style="display:inline;fill:#008080;fill-opacity:1;stroke:#000000">
      <rect
         transform="matrix(0,1,1,0,0,0)"
         y="97.915009"
         x="687.36249"
         height="77.252121"
         width="39.971428"
         id="rect16944"
         style="color:#000000;display:inline;overflow:visible;visibility:visible;fill:#008080;fill-opacity:1;fill-rule:nonzero;stroke:#000000;stroke-width:2.49583793;stroke-miterlimit:4;stroke-dasharray:none;stroke-dashoffset:0;marker:none;enable-background:accumulate" />
      <rect
         transform="matrix(0,1,1,0,0,0)"
         style="color:#000000;display:inline;overflow:visible;visibility:visible;fill:#008080;fill-opacity:1;fill-rule:nonzero;stroke:#000000;stroke-width:2.49583793;stroke-miterlimit:4;stroke-dasharray:none;stroke-dashoffset:0;marker:none;enable-background:accumulate"
         id="rect16946"
         width="47.343639"
         height="22.626621"
         x="683.67639"
         y="166.82719" />
    </g>
    <g
       style="display:inline;fill:url(#pattern14959-3);fill-opacity:1.0;stroke:#000000"
       transform="translate(-190.9329,-460.65855)"
       id="g16948">
      <rect
         transform="rotate(90)"
         y="-140.57593"
         x="687.36249"
         height="77.252121"
         width="39.971428"
         id="rect16950"
         style="color:#000000;display:inline;overflow:visible;visibility:visible;fill:url(#pattern14959-3);fill-opacity:1.0;fill-rule:nonzero;stroke:#000000;stroke-width:2.49583793;stroke-miterlimit:4;stroke-dasharray:none;stroke-dashoffset:0;marker:none;enable-background:accumulate" />
      <rect
         transform="rotate(90)"
         style="color:#000000;display:inline;overflow:visible;visibility:visible;fill:url(#pattern14959-3);fill-opacity:1.0;fill-rule:nonzero;stroke:#000000;stroke-width:2.49583793;stroke-miterlimit:4;stroke-dasharray:none;stroke-dashoffset:0;marker:none;enable-background:accumulate"
         id="rect16952"
         width="47.343639"
         height="22.626621"
         x="683.67639"
         y="-71.663742" />
    </g>
    <path
       inkscape:transform-center-x="-2.0636749"
       transform="matrix(0,0.16341147,-0.30349061,0,-21.805445,241.2037)"
       d="m 57.12662,378.81889 -47.110379,0 23.555189,-40.79878 z"
       inkscape:randomized="0"
       inkscape:rounded="0"
       inkscape:flatsided="true"
       sodipodi:arg2="1.5707963"
       sodipodi:arg1="0.52359878"
       sodipodi:r2="13.599595"
       sodipodi:r1="27.19919"
       sodipodi:cy="365.2193"
       sodipodi:cx="33.57143"
       sodipodi:sides="3"
       id="path16954"
       style="display:inline;opacity:1;fill:#ff0000;fill-opacity:1;stroke:#000000;stroke-width:7.47155905;stroke-linecap:round;stroke-linejoin:round;stroke-miterlimit:4;stroke-dasharray:none;stroke-dashoffset:0;stroke-opacity:1"
       sodipodi:type="star" />
    <path
       style="color:#000000;display:inline;overflow:visible;visibility:visible;fill:#93ac93;fill-opacity:1;fill-rule:nonzero;stroke:#0b280b;stroke-width:2.02200007;stroke-miterlimit:4;stroke-dasharray:none;stroke-dashoffset:0;marker:none;enable-background:accumulate"
       d="m -103.59562,202.62046 v 88.1384 h 10.541051 73.581861 8.81384 v -88.1384 h -8.81384 -73.581861 z"
       id="path16956"
       inkscape:connector-curvature="0" />
    <path
       inkscape:connector-curvature="0"
       id="path16958"
       d="m -77.983149,213.35556 -3.17851,1.1383 5.06498,14.3201 3e-5,51.8219 h 3.37281 l -3e-5,-51.1502 0.39541,-0.1413 -0.39541,-1.1179 v -1.2166 h -0.43002 z"
       style="display:inline;opacity:1;fill:#cccccc;fill-opacity:1;stroke:#000000;stroke-width:2;stroke-linecap:round;stroke-linejoin:round;stroke-miterlimit:4;stroke-dasharray:none;stroke-dashoffset:0;stroke-opacity:1" />
    <rect
       transform="rotate(-90)"
       style="display:inline;opacity:1;fill:#cccccc;fill-opacity:1;stroke:#000000;stroke-width:2;stroke-linecap:round;stroke-linejoin:round;stroke-miterlimit:4;stroke-dasharray:none;stroke-dashoffset:0;stroke-opacity:1"
       id="rect16960"
       width="3.3940663"
       height="24.290125"
       x="-274.86615"
       y="-72.696465" />
    <rect
       ry="2.7152531"
       y="249.66878"
       x="-71.266098"
       height="20.364397"
       width="15.518689"
       id="rect16962"
       style="display:inline;opacity:1;fill:#eeffaa;fill-opacity:1;stroke:#000000;stroke-width:2;stroke-linecap:round;stroke-linejoin:round;stroke-miterlimit:4;stroke-dasharray:none;stroke-dashoffset:0;stroke-opacity:1" />
    <rect
       style="display:inline;opacity:1;fill:#eeffaa;fill-opacity:1;stroke:#000000;stroke-width:2;stroke-linecap:round;stroke-linejoin:round;stroke-miterlimit:4;stroke-dasharray:none;stroke-dashoffset:0;stroke-opacity:1"
       id="rect16964"
       width="15.518689"
       height="20.364397"
       x="-71.266098"
       y="228.62556"
       ry="2.7152531" />
    <g
       transform="matrix(0.49254968,0,0,0.49553368,-381.74781,-300.23796)"
       id="g16966"
       style="display:inline">
      <circle
         style="opacity:1;fill:#333333;fill-opacity:1;stroke:#000000;stroke-width:4.04825974;stroke-linecap:round;stroke-linejoin:round;stroke-miterlimit:4;stroke-dasharray:none;stroke-dashoffset:0;stroke-opacity:1"
         id="circle16968"
         cx="600.8493"
         cy="1149.1506"
         r="20.547945" />
      <circle
         r="12.328767"
         cy="1149.1506"
         cx="600.8493"
         id="circle16970"
         style="opacity:1;fill:#e6e6e6;fill-opacity:1;stroke:#000000;stroke-width:4.04825974;stroke-linecap:round;stroke-linejoin:round;stroke-miterlimit:4;stroke-dasharray:none;stroke-dashoffset:0;stroke-opacity:1" />
    </g>
    <rect
       ry="2.7152531"
       y="260.10822"
       x="-31.774273"
       height="20.364397"
       width="15.518689"
       id="rect16972"
       style="display:inline;opacity:1;fill:#eeffaa;fill-opacity:1;stroke:#000000;stroke-width:2;stroke-linecap:round;stroke-linejoin:round;stroke-miterlimit:4;stroke-dasharray:none;stroke-dashoffset:0;stroke-opacity:1" />
    <g
       id="g16974"
       style="display:inline"
       transform="translate(-758.51019,-889.63664)">
      <path
         inkscape:connector-curvature="0"
         id="path16976"
         d="m 714.90039,1105.9141 c -6.33524,0.2291 -10.95508,7.2304 -10.95508,7.2304 l 0.82813,0.5606 c 0,0 4.56816,-6.5887 10.16406,-6.791 2.79795,-0.1012 5.93511,1.2988 9.14062,6.0625 3.20552,4.7636 6.4063,12.8812 9.14258,26.0039 l 0.97852,-0.2032 c -2.75118,-13.1941 -5.96455,-21.416 -9.29102,-26.3593 -3.32646,-4.9434 -6.84019,-6.6185 -10.00781,-6.5039 z"
         style="color:#000000;font-style:normal;font-variant:normal;font-weight:normal;font-stretch:normal;font-size:medium;line-height:normal;font-family:sans-serif;text-indent:0;text-align:start;text-decoration:none;text-decoration-line:none;text-decoration-style:solid;text-decoration-color:#000000;letter-spacing:normal;word-spacing:normal;text-transform:none;writing-mode:lr-tb;direction:ltr;baseline-shift:baseline;text-anchor:start;white-space:normal;clip-rule:nonzero;display:inline;overflow:visible;visibility:visible;opacity:1;isolation:auto;mix-blend-mode:normal;color-interpolation:sRGB;color-interpolation-filters:linearRGB;solid-color:#000000;solid-opacity:1;fill:#000000;fill-opacity:1;fill-rule:evenodd;stroke:none;stroke-width:1px;stroke-linecap:butt;stroke-linejoin:miter;stroke-miterlimit:4;stroke-dasharray:none;stroke-dashoffset:0;stroke-opacity:1;color-rendering:auto;image-rendering:auto;shape-rendering:auto;text-rendering:auto;enable-background:accumulate" />
      <path
         inkscape:connector-curvature="0"
         style="fill:#000000;fill-opacity:1;fill-rule:evenodd;stroke:#000000;stroke-width:0.80000004pt;stroke-opacity:1"
         d="m 731.66809,1129.0892 -4.73228,-3.0993 6.77353,12.8887 1.05802,-14.5217 z"
         id="path16978" />
    </g>
    <path
       inkscape:transform-center-x="-2.063677"
       transform="matrix(0,0.16341147,-0.30349061,0,125.87491,241.20366)"
       d="m 57.12662,378.81889 -47.110379,0 23.555189,-40.79878 z"
       inkscape:randomized="0"
       inkscape:rounded="0"
       inkscape:flatsided="true"
       sodipodi:arg2="1.5707963"
       sodipodi:arg1="0.52359878"
       sodipodi:r2="13.599595"
       sodipodi:r1="27.19919"
       sodipodi:cy="365.2193"
       sodipodi:cx="33.57143"
       sodipodi:sides="3"
       id="path16980"
       style="display:inline;opacity:1;fill:#00ff00;fill-opacity:1;stroke:#000000;stroke-width:7.47155905;stroke-linecap:round;stroke-linejoin:round;stroke-miterlimit:4;stroke-dasharray:none;stroke-dashoffset:0;stroke-opacity:1"
       sodipodi:type="star" />
    <g
       transform="translate(-12.763315,-157.64197)"
       id="g16982">
      <g
         id="g16984"
         transform="translate(31.226546,-303.01655)"
         style="display:inline;fill:#008080;fill-opacity:1">
        <rect
           style="color:#000000;display:inline;overflow:visible;visibility:visible;fill:#008080;fill-opacity:1;fill-rule:nonzero;stroke:#0b280b;stroke-width:2.49583793;stroke-miterlimit:4;stroke-dasharray:none;stroke-dashoffset:0;marker:none;enable-background:accumulate"
           id="rect16986"
           width="39.971428"
           height="77.252121"
           x="687.36249"
           y="-140.57593"
           transform="matrix(0,1,-1,0,0,0)" />
        <rect
           y="-71.663742"
           x="683.67639"
           height="22.626621"
           width="47.343639"
           id="rect16988"
           style="color:#000000;display:inline;overflow:visible;visibility:visible;fill:#008080;fill-opacity:1;fill-rule:nonzero;stroke:#0b280b;stroke-width:2.49583793;stroke-miterlimit:4;stroke-dasharray:none;stroke-dashoffset:0;marker:none;enable-background:accumulate"
           transform="matrix(0,1,-1,0,0,0)" />
      </g>
      <path
         sodipodi:type="star"
         style="display:inline;opacity:1;fill:#ff0000;fill-opacity:1;stroke:#000000;stroke-width:7.47155905;stroke-linecap:round;stroke-linejoin:round;stroke-miterlimit:4;stroke-dasharray:none;stroke-dashoffset:0;stroke-opacity:1"
         id="path16990"
         sodipodi:sides="3"
         sodipodi:cx="33.57143"
         sodipodi:cy="365.2193"
         sodipodi:r1="27.19919"
         sodipodi:r2="13.599595"
         sodipodi:arg1="0.52359878"
         sodipodi:arg2="1.5707963"
         inkscape:flatsided="true"
         inkscape:rounded="0"
         inkscape:randomized="0"
         d="m 57.12662,378.81889 -47.110379,0 23.555189,-40.79878 z"
         transform="matrix(0,0.16341147,-0.30349061,0,200.35399,398.84574)"
         inkscape:transform-center-x="-2.0636753" />
      <g
         style="display:inline"
         id="g16992"
         transform="translate(-505.35907,-819.78263)">
        <path
           inkscape:connector-curvature="0"
           id="path16994"
           d="m 619.171,1187.4334 0,73.3617 8.32082,0 58.08352,0 6.95741,0 0,-73.3617 -6.95741,0 -58.08352,0 -8.32082,0 z"
           style="color:#000000;display:inline;overflow:visible;visibility:visible;fill:#93ac93;fill-opacity:1;fill-rule:nonzero;stroke:#0b280b;stroke-width:2.63824439;stroke-miterlimit:4;stroke-dasharray:none;stroke-dashoffset:0;marker:none;enable-background:accumulate" />
        <g
           transform="translate(-0.49476654,2.400811)"
           id="g16996">
          <rect
             ry="3.10991"
             y="1205.0841"
             x="635.3606"
             height="15.085891"
             width="41.972069"
             id="rect16998"
             style="opacity:1;fill:#d3bc5f;fill-opacity:1;stroke:#000000;stroke-width:1.29999995;stroke-linecap:round;stroke-linejoin:round;stroke-miterlimit:4;stroke-dasharray:none;stroke-dashoffset:0;stroke-opacity:1" />
          <rect
             style="opacity:1;fill:#ffffff;fill-opacity:1;stroke:#000000;stroke-width:1.29999995;stroke-linecap:round;stroke-linejoin:round;stroke-miterlimit:4;stroke-dasharray:none;stroke-dashoffset:0;stroke-opacity:1"
             id="rect17000"
             width="33.840111"
             height="15.152389"
             x="639.42657"
             y="1196.559"
             ry="0" />
          <rect
             style="opacity:1;fill:#ffeeaa;fill-opacity:1;stroke:#000000;stroke-width:1.29999995;stroke-linecap:round;stroke-linejoin:round;stroke-miterlimit:4;stroke-dasharray:none;stroke-dashoffset:0;stroke-opacity:1"
             id="rect17002"
             width="41.972069"
             height="15.085891"
             x="635.3606"
             y="1215.4413"
             ry="3.10991" />
          <rect
             style="opacity:1;fill:#ffeeaa;fill-opacity:1;stroke:#000000;stroke-width:1.29999995;stroke-linecap:round;stroke-linejoin:round;stroke-miterlimit:4;stroke-dasharray:none;stroke-dashoffset:0;stroke-opacity:1"
             id="rect17004"
             width="46.972092"
             height="15.621451"
             x="632.8606"
             y="1207.9412"
             ry="3.10991" />
          <rect
             ry="0"
             y="1226.1598"
             x="639.42657"
             height="20.708128"
             width="33.840111"
             id="rect17006"
             style="opacity:1;fill:#ffffff;fill-opacity:1;stroke:#000000;stroke-width:1.29999995;stroke-linecap:round;stroke-linejoin:round;stroke-miterlimit:4;stroke-dasharray:none;stroke-dashoffset:0;stroke-opacity:1" />
          <path
             style="fill:none;fill-rule:evenodd;stroke:#000000;stroke-width:1px;stroke-linecap:butt;stroke-linejoin:miter;stroke-opacity:1"
             d="m 644.9824,1231.736 18.97843,0"
             id="path17008"
             inkscape:connector-curvature="0"
             sodipodi:nodetypes="cc" />
          <path
             inkscape:connector-curvature="0"
             id="path17010"
             d="m 644.9824,1236.5343 22.72843,0"
             style="fill:none;fill-rule:evenodd;stroke:#000000;stroke-width:1px;stroke-linecap:butt;stroke-linejoin:miter;stroke-opacity:1" />
          <path
             style="fill:none;fill-rule:evenodd;stroke:#000000;stroke-width:1px;stroke-linecap:butt;stroke-linejoin:miter;stroke-opacity:1"
             d="m 644.9824,1241.3325 16.29986,0"
             id="path17012"
             inkscape:connector-curvature="0"
             sodipodi:nodetypes="cc" />
          <circle
             style="opacity:1;fill:#000000;fill-opacity:1;stroke:none;stroke-width:1.29999995;stroke-linecap:round;stroke-linejoin:round;stroke-miterlimit:4;stroke-dasharray:none;stroke-dashoffset:0;stroke-opacity:1"
             id="circle17014"
             cx="672.32141"
             cy="1217.1786"
             r="1.9642857" />
        </g>
      </g>
    </g>
  </g>
</svg>
