<?xml version="1.0" encoding="UTF-8" standalone="no"?>
<!DOCTYPE svg PUBLIC "-//W3C//DTD SVG 1.1//EN"
 "http://www.w3.org/Graphics/SVG/1.1/DTD/svg11.dtd">
<!-- Generated by graphviz version 2.38.0 (20140413.2041)
 -->
<!-- Title: G Pages: 1 -->
<svg width="400pt" height="404pt"
 viewBox="0.00 0.00 400.39 404.00" xmlns="http://www.w3.org/2000/svg" xmlns:xlink="http://www.w3.org/1999/xlink">
<g id="graph0" class="graph" transform="scale(1 1) rotate(0) translate(4 400)">
<title>G</title>
<polygon fill="white" stroke="none" points="-4,4 -4,-400 396.393,-400 396.393,4 -4,4"/>
<!-- 0 -->
<g id="node1" class="node"><title>0</title>
<ellipse fill="blue" stroke="black" cx="192.697" cy="-378" rx="34.394" ry="18"/>
<text text-anchor="middle" x="192.697" y="-374.3" font-family="Times,serif" font-size="14.00" fill="white">&lt;exp&gt;</text>
</g>
<!-- 1 -->
<g id="node2" class="node"><title>1</title>
<ellipse fill="blue" stroke="black" cx="192.697" cy="-306" rx="34.394" ry="18"/>
<text text-anchor="middle" x="192.697" y="-302.3" font-family="Times,serif" font-size="14.00" fill="white">&lt;add&gt;</text>
</g>
<!-- 0&#45;&gt;1 -->
<g id="edge1" class="edge"><title>0&#45;&gt;1</title>
<path fill="none" stroke="black" d="M192.697,-359.697C192.697,-351.983 192.697,-342.712 192.697,-334.112"/>
<polygon fill="black" stroke="black" points="196.197,-334.104 192.697,-324.104 189.197,-334.104 196.197,-334.104"/>
</g>
<!-- 2 -->
<g id="node3" class="node"><title>2</title>
<ellipse fill="blue" stroke="black" cx="37.6967" cy="-234" rx="37.8943" ry="18"/>
<text text-anchor="middle" x="37.6967" y="-230.3" font-family="Times,serif" font-size="14.00" fill="white">&lt;num&gt;</text>
</g>
<!-- 1&#45;&gt;2 -->
<g id="edge2" class="edge"><title>1&#45;&gt;2</title>
<path fill="none" stroke="black" d="M167.448,-293.597C141.938,-282.077 102.289,-264.171 73.5314,-251.183"/>
<polygon fill="black" stroke="black" points="74.787,-247.91 64.2327,-246.984 71.9058,-254.29 74.787,-247.91"/>
</g>
<!-- 4 -->
<g id="node5" class="node"><title>4</title>
<polygon fill="white" stroke="black" points="147.697,-252 93.6967,-252 93.6967,-216 147.697,-216 147.697,-252"/>
<text text-anchor="middle" x="120.697" y="-230.3" font-family="Times,serif" font-size="14.00">+</text>
</g>
<!-- 1&#45;&gt;4 -->
<g id="edge4" class="edge"><title>1&#45;&gt;4</title>
<path fill="none" stroke="black" d="M177.074,-289.811C167.888,-280.881 156.064,-269.384 145.618,-259.229"/>
<polygon fill="black" stroke="black" points="147.922,-256.588 138.313,-252.127 143.043,-261.607 147.922,-256.588"/>
</g>
<!-- 5 -->
<g id="node6" class="node"><title>5</title>
<polygon fill="white" stroke="black" points="219.697,-252 165.697,-252 165.697,-216 219.697,-216 219.697,-252"/>
<text text-anchor="middle" x="192.697" y="-230.3" font-family="Times,serif" font-size="14.00">(</text>
</g>
<!-- 1&#45;&gt;5 -->
<g id="edge5" class="edge"><title>1&#45;&gt;5</title>
<path fill="none" stroke="black" d="M192.697,-287.697C192.697,-279.983 192.697,-270.712 192.697,-262.112"/>
<polygon fill="black" stroke="black" points="196.197,-262.104 192.697,-252.104 189.197,-262.104 196.197,-262.104"/>
</g>
<!-- 6 -->
<g id="node7" class="node"><title>6</title>
<ellipse fill="blue" stroke="black" cx="271.697" cy="-234" rx="34.394" ry="18"/>
<text text-anchor="middle" x="271.697" y="-230.3" font-family="Times,serif" font-size="14.00" fill="white">&lt;exp&gt;</text>
</g>
<!-- 1&#45;&gt;6 -->
<g id="edge6" class="edge"><title>1&#45;&gt;6</title>
<path fill="none" stroke="black" d="M209.451,-290.155C220.448,-280.41 235.014,-267.503 247.291,-256.626"/>
<polygon fill="black" stroke="black" points="249.804,-259.075 254.967,-249.824 245.161,-253.836 249.804,-259.075"/>
</g>
<!-- 13 -->
<g id="node14" class="node"><title>13</title>
<polygon fill="white" stroke="black" points="377.697,-252 323.697,-252 323.697,-216 377.697,-216 377.697,-252"/>
<text text-anchor="middle" x="350.697" y="-230.3" font-family="Times,serif" font-size="14.00">)</text>
</g>
<!-- 1&#45;&gt;13 -->
<g id="edge13" class="edge"><title>1&#45;&gt;13</title>
<path fill="none" stroke="black" d="M218.505,-294.066C241.432,-284.293 276.048,-269.388 314.337,-252.103"/>
<polygon fill="black" stroke="black" points="315.947,-255.216 323.612,-247.901 313.059,-248.839 315.947,-255.216"/>
</g>
<!-- 3 -->
<g id="node4" class="node"><title>3</title>
<polygon fill="white" stroke="black" points="64.6967,-180 10.6967,-180 10.6967,-144 64.6967,-144 64.6967,-180"/>
<text text-anchor="middle" x="37.6967" y="-158.3" font-family="Times,serif" font-size="14.00">3</text>
</g>
<!-- 2&#45;&gt;3 -->
<g id="edge3" class="edge"><title>2&#45;&gt;3</title>
<path fill="none" stroke="black" d="M37.6967,-215.697C37.6967,-207.983 37.6967,-198.712 37.6967,-190.112"/>
<polygon fill="black" stroke="black" points="41.1968,-190.104 37.6967,-180.104 34.1968,-190.104 41.1968,-190.104"/>
</g>
<!-- 7 -->
<g id="node8" class="node"><title>7</title>
<ellipse fill="blue" stroke="black" cx="271.697" cy="-162" rx="33.5952" ry="18"/>
<text text-anchor="middle" x="271.697" y="-158.3" font-family="Times,serif" font-size="14.00" fill="white">&lt;sub&gt;</text>
</g>
<!-- 6&#45;&gt;7 -->
<g id="edge7" class="edge"><title>6&#45;&gt;7</title>
<path fill="none" stroke="black" d="M271.697,-215.697C271.697,-207.983 271.697,-198.712 271.697,-190.112"/>
<polygon fill="black" stroke="black" points="275.197,-190.104 271.697,-180.104 268.197,-190.104 275.197,-190.104"/>
</g>
<!-- 8 -->
<g id="node9" class="node"><title>8</title>
<ellipse fill="blue" stroke="black" cx="188.697" cy="-90" rx="37.8943" ry="18"/>
<text text-anchor="middle" x="188.697" y="-86.3" font-family="Times,serif" font-size="14.00" fill="white">&lt;num&gt;</text>
</g>
<!-- 7&#45;&gt;8 -->
<g id="edge8" class="edge"><title>7&#45;&gt;8</title>
<path fill="none" stroke="black" d="M254.499,-146.496C242.86,-136.68 227.283,-123.542 214.206,-112.514"/>
<polygon fill="black" stroke="black" points="216.346,-109.74 206.445,-105.968 211.833,-115.091 216.346,-109.74"/>
</g>
<!-- 10 -->
<g id="node11" class="node"><title>10</title>
<polygon fill="white" stroke="black" points="298.697,-108 244.697,-108 244.697,-72 298.697,-72 298.697,-108"/>
<text text-anchor="middle" x="271.697" y="-86.3" font-family="Times,serif" font-size="14.00">&#45;</text>
</g>
<!-- 7&#45;&gt;10 -->
<g id="edge10" class="edge"><title>7&#45;&gt;10</title>
<path fill="none" stroke="black" d="M271.697,-143.697C271.697,-135.983 271.697,-126.712 271.697,-118.112"/>
<polygon fill="black" stroke="black" points="275.197,-118.104 271.697,-108.104 268.197,-118.104 275.197,-118.104"/>
</g>
<!-- 11 -->
<g id="node12" class="node"><title>11</title>
<ellipse fill="blue" stroke="black" cx="354.697" cy="-90" rx="37.8943" ry="18"/>
<text text-anchor="middle" x="354.697" y="-86.3" font-family="Times,serif" font-size="14.00" fill="white">&lt;num&gt;</text>
</g>
<!-- 7&#45;&gt;11 -->
<g id="edge11" class="edge"><title>7&#45;&gt;11</title>
<path fill="none" stroke="black" d="M288.894,-146.496C300.534,-136.68 316.111,-123.542 329.187,-112.514"/>
<polygon fill="black" stroke="black" points="331.56,-115.091 336.948,-105.968 327.048,-109.74 331.56,-115.091"/>
</g>
<!-- 9 -->
<g id="node10" class="node"><title>9</title>
<polygon fill="white" stroke="black" points="215.697,-36 161.697,-36 161.697,-0 215.697,-0 215.697,-36"/>
<text text-anchor="middle" x="188.697" y="-14.3" font-family="Times,serif" font-size="14.00">4</text>
</g>
<!-- 8&#45;&gt;9 -->
<g id="edge9" class="edge"><title>8&#45;&gt;9</title>
<path fill="none" stroke="black" d="M188.697,-71.6966C188.697,-63.9827 188.697,-54.7125 188.697,-46.1124"/>
<polygon fill="black" stroke="black" points="192.197,-46.1043 188.697,-36.1043 185.197,-46.1044 192.197,-46.1043"/>
</g>
<!-- 12 -->
<g id="node13" class="node"><title>12</title>
<polygon fill="white" stroke="black" points="381.697,-36 327.697,-36 327.697,-0 381.697,-0 381.697,-36"/>
<text text-anchor="middle" x="354.697" y="-14.3" font-family="Times,serif" font-size="14.00">5</text>
</g>
<!-- 11&#45;&gt;12 -->
<g id="edge12" class="edge"><title>11&#45;&gt;12</title>
<path fill="none" stroke="black" d="M354.697,-71.6966C354.697,-63.9827 354.697,-54.7125 354.697,-46.1124"/>
<polygon fill="black" stroke="black" points="358.197,-46.1043 354.697,-36.1043 351.197,-46.1044 358.197,-46.1043"/>
</g>
</g>
</svg>
