<?xml version="1.0" encoding="UTF-8" standalone="no"?>
<!-- Created with Inkscape (http://www.inkscape.org/) -->

<svg
   xmlns:dc="http://purl.org/dc/elements/1.1/"
   xmlns:cc="http://creativecommons.org/ns#"
   xmlns:rdf="http://www.w3.org/1999/02/22-rdf-syntax-ns#"
   xmlns:svg="http://www.w3.org/2000/svg"
   xmlns="http://www.w3.org/2000/svg"
   xmlns:xlink="http://www.w3.org/1999/xlink"
   xmlns:sodipodi="http://sodipodi.sourceforge.net/DTD/sodipodi-0.dtd"
   xmlns:inkscape="http://www.inkscape.org/namespaces/inkscape"
   width="446.36749"
   height="297.73416"
   viewBox="0 0 418.4695 279.12578"
   id="svg18651"
   version="1.1"
   inkscape:version="0.92.3 (2405546, 2018-03-11)"
   sodipodi:docname="ForkMutable.svg"
   inkscape:export-filename="/home/sylvain/Workspaces/beepbeep/examples/Source/src/doc-files/basic/ForkMutable.png"
   inkscape:export-xdpi="63.894947"
   inkscape:export-ydpi="63.894947">
  <defs
     id="defs18653">
    <pattern
       id="pattern10938-758-124-313-1-6"
       patternTransform="translate(105.32577,298.98598)"
       height="22.497425"
       width="13.498456"
       patternUnits="userSpaceOnUse">
      <rect
         style="fill:url(#pattern10936-906-732-194-9-9);stroke:none"
         width="13.498456"
         height="22.497425"
         x="2.7339242e-015"
         y="-2.8144154e-014"
         id="rect12091-2-8" />
    </pattern>
    <pattern
       patternTransform="matrix(0.3213918,0,0,0.32139182,2.4829098e-6,-1.2431639e-5)"
       id="pattern10936-906-732-194-9-9"
       xlink:href="#pattern10926-828-791-730-3-2"
       inkscape:collect="always" />
    <pattern
       id="pattern10926-828-791-730-3-2"
       patternTransform="translate(105.32577,298.98598)"
       height="69.999989"
       width="41.999994"
       patternUnits="userSpaceOnUse">
      <path
         inkscape:connector-curvature="0"
         style="opacity:1;fill:#008080;fill-opacity:1;fill-rule:nonzero;stroke:none;stroke-width:2;stroke-linecap:round;stroke-linejoin:round;stroke-miterlimit:4;stroke-dasharray:6, 2;stroke-dashoffset:0;stroke-opacity:1"
         d="m 41.999994,6.9999993 a 13.999999,14 0 0 0 -0.99023,0.03515 13.999999,14 0 0 0 -1.38868,0.16797 13.999999,14 0 0 0 -1.365229,0.30664 13.999999,14 0 0 0 -1.32813,0.4414099 13.999999,14 0 0 0 -1.27734,0.57226 13.999999,14 0 0 0 -1.21484,0.6953199 13.999999,14 0 0 0 -1.13867,0.8144499 13.999999,14 0 0 0 -1.05079,0.92383 13.999999,14 0 0 0 -0.953119,1.02344 13.999999,14 0 0 0 -0.84766,1.11523 13.999999,14 0 0 0 -0.73242,1.19141 13.999999,14 0 0 0 -0.60742,1.261709 13.999999,14 0 0 0 -0.48047,1.31446 13.999999,14 0 0 0 -0.3457,1.35547 13.999999,14 0 0 0 -0.20899,1.38281 13.999999,14 0 0 0 -0.07031,1.39844 13.999999,14 0 0 0 0.03516,0.99023 13.999999,14 0 0 0 0.16796,1.38867 13.999999,14 0 0 0 0.30665,1.36524 13.999999,14 0 0 0 0.4414,1.328119 13.999999,14 0 0 0 0.57227,1.27735 13.999999,14 0 0 0 0.69531,1.21484 13.999999,14 0 0 0 0.81445,1.13867 13.999999,14 0 0 0 0.923829,1.05078 13.999999,14 0 0 0 1.02344,0.95313 13.999999,14 0 0 0 1.11523,0.84765 13.999999,14 0 0 0 1.19141,0.73047 13.999999,14 0 0 0 1.26172,0.60938 13.999999,14 0 0 0 1.31445,0.48047 13.999999,14 0 0 0 1.355469,0.3457 13.999999,14 0 0 0 1.38281,0.20898 13.999999,14 0 0 0 1.39844,0.07032 l 0,-27.9999977 z"
         id="path12095-1-6" />
      <path
         inkscape:connector-curvature="0"
         style="opacity:1;fill:#de87aa;fill-opacity:1;fill-rule:nonzero;stroke:none;stroke-width:2;stroke-linecap:round;stroke-linejoin:round;stroke-miterlimit:4;stroke-dasharray:6, 2;stroke-dashoffset:0;stroke-opacity:1"
         d="m 0,0 0,6.9999993 a 13.999997,13.999999 0 0 1 1.3984398,0.07031 13.999997,13.999999 0 0 1 1.3828098,0.20898 13.999997,13.999999 0 0 1 1.3554698,0.3457099 13.999997,13.999999 0 0 1 1.3144498,0.48047 13.999997,13.999999 0 0 1 1.2617198,0.6074199 13.999997,13.999999 0 0 1 1.1914099,0.73242 13.999997,13.999999 0 0 1 1.1152298,0.8476599 13.999997,13.999999 0 0 1 1.0234403,0.95312 13.999997,13.999999 0 0 1 0.923829,1.05078 13.999997,13.999999 0 0 1 0.81445,1.13867 13.999997,13.999999 0 0 1 0.69531,1.21485 13.999997,13.999999 0 0 1 0.57227,1.277339 13.999997,13.999999 0 0 1 0.4414,1.32617 13.999997,13.999999 0 0 1 0.30665,1.36719 13.999997,13.999999 0 0 1 0.16796,1.38867 13.999997,13.999999 0 0 1 0.03516,0.99024 13.999997,13.999999 0 0 1 -0.07031,1.39843 13.999997,13.999999 0 0 1 -0.20899,1.38282 13.999997,13.999999 0 0 1 -0.3457,1.35546 13.999997,13.999999 0 0 1 -0.48047,1.314459 13.999997,13.999999 0 0 1 -0.60742,1.25976 13.999997,13.999999 0 0 1 -0.73242,1.19336 13.999997,13.999999 0 0 1 -0.84766,1.11524 13.999997,13.999999 0 0 1 -0.9531194,1.02344 13.999997,13.999999 0 0 1 -1.0507898,0.92382 13.999997,13.999999 0 0 1 -1.1386699,0.81446 13.999997,13.999999 0 0 1 -1.2148398,0.69531 13.999997,13.999999 0 0 1 -1.2773398,0.57226 13.999997,13.999999 0 0 1 -1.3281298,0.44141 13.999997,13.999999 0 0 1 -1.3652298,0.30664 13.999997,13.999999 0 0 1 -1.38867984,0.16797 A 13.999997,13.999999 0 0 1 0,34.999997 l 0,34.999992 41.999994,0 0,-34.999992 a 13.999999,14 0 0 1 -1.39844,-0.07032 13.999999,14 0 0 1 -1.38281,-0.20898 13.999999,14 0 0 1 -1.355469,-0.3457 13.999999,14 0 0 1 -1.31445,-0.48047 13.999999,14 0 0 1 -1.26172,-0.60938 13.999999,14 0 0 1 -1.19141,-0.73047 13.999999,14 0 0 1 -1.11523,-0.84765 13.999999,14 0 0 1 -1.02344,-0.95313 13.999999,14 0 0 1 -0.923829,-1.05078 13.999999,14 0 0 1 -0.81445,-1.13867 13.999999,14 0 0 1 -0.69531,-1.21484 13.999999,14 0 0 1 -0.57227,-1.27735 13.999999,14 0 0 1 -0.4414,-1.328119 13.999999,14 0 0 1 -0.30665,-1.36524 13.999999,14 0 0 1 -0.16796,-1.38867 13.999999,14 0 0 1 -0.03516,-0.99023 13.999999,14 0 0 1 0.07031,-1.39844 13.999999,14 0 0 1 0.20899,-1.38281 13.999999,14 0 0 1 0.3457,-1.35547 13.999999,14 0 0 1 0.48047,-1.31446 13.999999,14 0 0 1 0.60742,-1.261709 13.999999,14 0 0 1 0.73242,-1.19141 13.999999,14 0 0 1 0.84766,-1.11523 13.999999,14 0 0 1 0.953119,-1.02344 13.999999,14 0 0 1 1.05079,-0.92383 13.999999,14 0 0 1 1.13867,-0.8144499 13.999999,14 0 0 1 1.21484,-0.6953199 13.999999,14 0 0 1 1.27734,-0.57226 13.999999,14 0 0 1 1.32813,-0.4414099 13.999999,14 0 0 1 1.365229,-0.30664 13.999999,14 0 0 1 1.38868,-0.16797 13.999999,14 0 0 1 0.99023,-0.03515 L 41.999994,0 0,0 Z"
         id="path12097-9-6" />
      <circle
         r="14.000001"
         style="opacity:1;fill:#008080;fill-opacity:1;fill-rule:nonzero;stroke:none;stroke-width:2;stroke-linecap:round;stroke-linejoin:round;stroke-miterlimit:4;stroke-dasharray:6.00000011, 2.00000002;stroke-dashoffset:0;stroke-opacity:1"
         id="circle12099-4-4"
         cx="21.000109"
         cy="55.999813" />
      <path
         inkscape:connector-curvature="0"
         style="opacity:1;fill:#008080;fill-opacity:1;fill-rule:nonzero;stroke:none;stroke-width:2;stroke-linecap:round;stroke-linejoin:round;stroke-miterlimit:4;stroke-dasharray:6, 2;stroke-dashoffset:0;stroke-opacity:1"
         d="m 0,34.999997 a 13.999999,14 0 0 0 0.99022986,-0.03516 13.999999,14 0 0 0 1.38867984,-0.16797 13.999999,14 0 0 0 1.3652298,-0.30664 13.999999,14 0 0 0 1.3281298,-0.44141 13.999999,14 0 0 0 1.2773398,-0.57226 13.999999,14 0 0 0 1.2148398,-0.69531 13.999999,14 0 0 0 1.1386699,-0.81446 13.999999,14 0 0 0 1.0507898,-0.92382 13.999999,14 0 0 0 0.9531194,-1.02344 13.999999,14 0 0 0 0.84766,-1.11524 13.999999,14 0 0 0 0.73242,-1.19336 13.999999,14 0 0 0 0.60742,-1.25976 13.999999,14 0 0 0 0.48047,-1.314459 13.999999,14 0 0 0 0.3457,-1.35546 13.999999,14 0 0 0 0.20899,-1.38282 13.999999,14 0 0 0 0.07031,-1.39843 13.999999,14 0 0 0 -0.03516,-0.99024 13.999999,14 0 0 0 -0.16796,-1.38867 13.999999,14 0 0 0 -0.30665,-1.36719 13.999999,14 0 0 0 -0.4414,-1.32617 13.999999,14 0 0 0 -0.57227,-1.277339 13.999999,14 0 0 0 -0.69531,-1.21485 13.999999,14 0 0 0 -0.81445,-1.13867 13.999999,14 0 0 0 -0.923829,-1.05078 A 13.999999,14 0 0 0 9.0195287,10.292969 13.999999,14 0 0 0 7.9042989,9.4453091 13.999999,14 0 0 0 6.712889,8.7128891 13.999999,14 0 0 0 5.4511692,8.1054692 13.999999,14 0 0 0 4.1367194,7.6249992 13.999999,14 0 0 0 2.7812496,7.2792893 13.999999,14 0 0 0 1.3984398,7.0703093 13.999999,14 0 0 0 0,6.9999993 L 0,34.999997 Z"
         id="path12101-7-9" />
    </pattern>
    <pattern
       patternUnits="userSpaceOnUse"
       width="15.118176"
       height="15.118209"
       patternTransform="matrix(0.93750005,0,0,0.93750005,-661.59741,468.1662)"
       id="pattern14959-3">
      <rect
         style="display:inline;opacity:1;fill:#de87aa;fill-opacity:1;stroke:none;stroke-width:2.01130414;stroke-miterlimit:4;stroke-dasharray:none"
         id="rect14947-6"
         width="15.118112"
         height="15.118112"
         x="6.5104163e-05"
         y="9.7656244e-05" />
      <path
         style="opacity:1;fill:#008080;fill-opacity:1;stroke:none;stroke-width:2.51413012;stroke-miterlimit:4;stroke-dasharray:none"
         id="path14949-0"
         sodipodi:type="arc"
         sodipodi:cx="0"
         sodipodi:cy="0"
         sodipodi:rx="3.7795277"
         sodipodi:ry="3.7795277"
         sodipodi:start="0"
         sodipodi:end="1.5707963"
         d="M 3.7795277,0 A 3.7795277,3.7795277 0 0 1 1.0127205e-7,3.7795277 L 0,0 Z" />
      <circle
         r="3.7795277"
         cy="7.5590491"
         cx="7.559114"
         id="circle14951-6"
         style="opacity:1;fill:#008080;fill-opacity:1;stroke:none;stroke-width:2.51413012;stroke-miterlimit:4;stroke-dasharray:none" />
      <path
         d="m -11.338635,0 a 3.7795277,3.7795277 0 0 1 -3.779528,3.7795277 l 0,-3.7795277 z"
         sodipodi:end="1.5707963"
         sodipodi:start="0"
         sodipodi:ry="3.7795277"
         sodipodi:rx="3.7795277"
         sodipodi:cy="0"
         sodipodi:cx="-15.118163"
         sodipodi:type="arc"
         id="path14953-2"
         style="opacity:1;fill:#008080;fill-opacity:1;stroke:none;stroke-width:2.51413012;stroke-miterlimit:4;stroke-dasharray:none"
         transform="scale(-1,1)" />
      <path
         d="M 3.7795277,-15.118098 A 3.7795277,3.7795277 0 0 1 1.0127205e-7,-11.338571 L 0,-15.118098 Z"
         sodipodi:end="1.5707963"
         sodipodi:start="0"
         sodipodi:ry="3.7795277"
         sodipodi:rx="3.7795277"
         sodipodi:cy="-15.118098"
         sodipodi:cx="0"
         sodipodi:type="arc"
         id="path14955-6"
         style="opacity:1;fill:#008080;fill-opacity:1;stroke:none;stroke-width:2.51413012;stroke-miterlimit:4;stroke-dasharray:none"
         transform="scale(1,-1)" />
      <path
         transform="scale(-1)"
         style="opacity:1;fill:#008080;fill-opacity:1;stroke:none;stroke-width:2.51413012;stroke-miterlimit:4;stroke-dasharray:none"
         id="path14957-1"
         sodipodi:type="arc"
         sodipodi:cx="-15.118163"
         sodipodi:cy="-15.118098"
         sodipodi:rx="3.7795277"
         sodipodi:ry="3.7795277"
         sodipodi:start="0"
         sodipodi:end="1.5707963"
         d="m -11.338635,-15.118098 a 3.7795277,3.7795277 0 0 1 -3.779528,3.779527 l 0,-3.779527 z" />
    </pattern>
  </defs>
  <sodipodi:namedview
     id="base"
     pagecolor="#ffffff"
     bordercolor="#666666"
     borderopacity="1.0"
     inkscape:pageopacity="0.0"
     inkscape:pageshadow="2"
     inkscape:zoom="1.4"
     inkscape:cx="201.18805"
     inkscape:cy="123.38156"
     inkscape:document-units="px"
     inkscape:current-layer="layer1"
     showgrid="false"
     fit-margin-top="1"
     fit-margin-left="1"
     fit-margin-right="1"
     fit-margin-bottom="1"
     inkscape:window-width="1920"
     inkscape:window-height="1052"
     inkscape:window-x="0"
     inkscape:window-y="0"
     inkscape:window-maximized="1"
     units="px" />
  <metadata
     id="metadata18656">
    <rdf:RDF>
      <cc:Work
         rdf:about="">
        <dc:format>image/svg+xml</dc:format>
        <dc:type
           rdf:resource="http://purl.org/dc/dcmitype/StillImage" />
        <dc:title></dc:title>
      </cc:Work>
    </rdf:RDF>
  </metadata>
  <g
     inkscape:label="Layer 1"
     inkscape:groupmode="layer"
     id="layer1"
     transform="translate(-309.12016,-26.877778)">
    <path
       style="color:#000000;font-style:normal;font-variant:normal;font-weight:normal;font-stretch:normal;font-size:medium;line-height:normal;font-family:sans-serif;text-indent:0;text-align:start;text-decoration:none;text-decoration-line:none;text-decoration-style:solid;text-decoration-color:#000000;letter-spacing:normal;word-spacing:normal;text-transform:none;writing-mode:lr-tb;direction:ltr;baseline-shift:baseline;text-anchor:start;white-space:normal;clip-rule:nonzero;display:inline;overflow:visible;visibility:visible;opacity:1;isolation:auto;mix-blend-mode:normal;color-interpolation:sRGB;color-interpolation-filters:linearRGB;solid-color:#000000;solid-opacity:1;fill:url(#pattern14959-3);fill-opacity:1.0;fill-rule:evenodd;stroke:#000000;stroke-width:2.00000024;stroke-linecap:butt;stroke-linejoin:round;stroke-miterlimit:4;stroke-dasharray:none;stroke-dashoffset:0;stroke-opacity:1;color-rendering:auto;image-rendering:auto;shape-rendering:auto;text-rendering:auto;enable-background:accumulate"
       d="m 505.60966,285.82926 v -36 H 390.75225 v -60.57031 h -36 v 78.57031 a 18.001802,18.001802 0 0 0 18,18 z"
       id="path19069"
       inkscape:connector-curvature="0" />
    <rect
       ry="3.5245645"
       y="-185.94022"
       x="-527.87714"
       height="34"
       width="163.13191"
       id="rect19919"
       style="opacity:1;fill:url(#pattern14959-3);fill-opacity:1.0;stroke:#000000;stroke-width:1.99999988;stroke-linecap:round;stroke-linejoin:round;stroke-miterlimit:4;stroke-dasharray:none;stroke-dashoffset:0;stroke-opacity:1"
       transform="scale(-1)" />
    <path
       inkscape:connector-curvature="0"
       id="path5399"
       d="M 505.60966,47.837593 V 83.837596 H 390.75225 v 60.570314 h -36 V 65.837596 a 18.001802,18.001802 0 0 1 18,-18.000003 z"
       style="color:#000000;font-style:normal;font-variant:normal;font-weight:normal;font-stretch:normal;font-size:medium;line-height:normal;font-family:sans-serif;text-indent:0;text-align:start;text-decoration:none;text-decoration-line:none;text-decoration-style:solid;text-decoration-color:#000000;letter-spacing:normal;word-spacing:normal;text-transform:none;writing-mode:lr-tb;direction:ltr;baseline-shift:baseline;text-anchor:start;white-space:normal;clip-rule:nonzero;display:inline;overflow:visible;visibility:visible;opacity:1;isolation:auto;mix-blend-mode:normal;color-interpolation:sRGB;color-interpolation-filters:linearRGB;solid-color:#000000;solid-opacity:1;fill:url(#pattern14959-3);fill-opacity:1.0;fill-rule:evenodd;stroke:#000000;stroke-width:2.00000024;stroke-linecap:butt;stroke-linejoin:round;stroke-miterlimit:4;stroke-dasharray:none;stroke-dashoffset:0;stroke-opacity:1;color-rendering:auto;image-rendering:auto;shape-rendering:auto;text-rendering:auto;enable-background:accumulate" />
    <g
       style="display:inline;fill:url(#pattern14959-3);fill-opacity:1.0"
       transform="translate(262.26846,-538.408)"
       id="g8279">
      <rect
         transform="rotate(90)"
         y="-92.718788"
         x="687.36249"
         height="29.394974"
         width="39.971428"
         id="rect8281"
         style="color:#000000;display:inline;overflow:visible;visibility:visible;fill:url(#pattern14959-3);fill-opacity:1.0;fill-rule:nonzero;stroke:#0b280b;stroke-width:2.49583793;stroke-miterlimit:4;stroke-dasharray:none;stroke-dashoffset:0;marker:none;enable-background:accumulate" />
      <rect
         transform="rotate(90)"
         style="color:#000000;display:inline;overflow:visible;visibility:visible;fill:url(#pattern14959-3);fill-opacity:1.0;fill-rule:nonzero;stroke:#0b280b;stroke-width:2.49583793;stroke-miterlimit:4;stroke-dasharray:none;stroke-dashoffset:0;marker:none;enable-background:accumulate"
         id="rect8283"
         width="47.343639"
         height="22.626621"
         x="683.67639"
         y="-71.663742" />
    </g>
    <path
       inkscape:transform-center-x="-2.0636753"
       transform="matrix(0,0.16341147,-0.30349061,0,431.39591,163.45425)"
       d="m 57.12662,378.81889 -47.110379,0 23.555189,-40.79878 z"
       inkscape:randomized="0"
       inkscape:rounded="0"
       inkscape:flatsided="true"
       sodipodi:arg2="1.5707963"
       sodipodi:arg1="0.52359878"
       sodipodi:r2="13.599595"
       sodipodi:r1="27.19919"
       sodipodi:cy="365.2193"
       sodipodi:cx="33.57143"
       sodipodi:sides="3"
       id="path8285"
       style="display:inline;opacity:1;fill:#ff0000;fill-opacity:1;stroke:#000000;stroke-width:7.47155905;stroke-linecap:round;stroke-linejoin:round;stroke-miterlimit:4;stroke-dasharray:none;stroke-dashoffset:0;stroke-opacity:1"
       sodipodi:type="star" />
    <path
       style="display:inline;fill:#677821;fill-opacity:1;stroke:#22280b;stroke-width:2.74859428;stroke-miterlimit:22.92558479;stroke-dasharray:none;stroke-dashoffset:0;stroke-opacity:1"
       d="m 398.1624,131.90569 -48.42546,12.8499 v 5.07831 36.12364 5.0783 l 48.42546,12.87049 v -30.7987 -10.40324 z"
       id="path9323"
       inkscape:connector-curvature="0" />
    <g
       style="display:inline;fill:url(#pattern14959-3);fill-opacity:1.0"
       transform="translate(401.75356,-440.28213)"
       id="g5403">
      <rect
         transform="rotate(90)"
         y="-140.57593"
         x="687.36249"
         height="77.252121"
         width="39.971428"
         id="rect5405"
         style="color:#000000;display:inline;overflow:visible;visibility:visible;fill:url(#pattern14959-3);fill-opacity:1.0;fill-rule:nonzero;stroke:#0b280b;stroke-width:2.49583793;stroke-miterlimit:4;stroke-dasharray:none;stroke-dashoffset:0;marker:none;enable-background:accumulate" />
      <rect
         transform="rotate(90)"
         style="color:#000000;display:inline;overflow:visible;visibility:visible;fill:url(#pattern14959-3);fill-opacity:1.0;fill-rule:nonzero;stroke:#0b280b;stroke-width:2.49583793;stroke-miterlimit:4;stroke-dasharray:none;stroke-dashoffset:0;marker:none;enable-background:accumulate"
         id="rect5407"
         width="47.343639"
         height="22.626621"
         x="683.67639"
         y="-71.663742" />
    </g>
    <path
       inkscape:transform-center-x="-2.0636753"
       transform="matrix(0,0.16341147,-0.30349061,0,570.881,261.58016)"
       d="m 57.12662,378.81889 -47.110379,0 23.555189,-40.79878 z"
       inkscape:randomized="0"
       inkscape:rounded="0"
       inkscape:flatsided="true"
       sodipodi:arg2="1.5707963"
       sodipodi:arg1="0.52359878"
       sodipodi:r2="13.599595"
       sodipodi:r1="27.19919"
       sodipodi:cy="365.2193"
       sodipodi:cx="33.57143"
       sodipodi:sides="3"
       id="path5409"
       style="display:inline;opacity:1;fill:#ff0000;fill-opacity:1;stroke:#000000;stroke-width:7.47155905;stroke-linecap:round;stroke-linejoin:round;stroke-miterlimit:4;stroke-dasharray:none;stroke-dashoffset:0;stroke-opacity:1"
       sodipodi:type="star" />
    <g
       transform="translate(-134.83209,-957.04816)"
       id="g5411"
       style="display:inline">
      <path
         style="color:#000000;display:inline;overflow:visible;visibility:visible;fill:#93ac93;fill-opacity:1;fill-rule:nonzero;stroke:#0b280b;stroke-width:2.63824439;stroke-miterlimit:4;stroke-dasharray:none;stroke-dashoffset:0;marker:none;enable-background:accumulate"
         d="m 619.171,1187.4334 v 73.3617 h 8.32082 58.08352 6.95741 v -73.3617 h -6.95741 -58.08352 z"
         id="path5413"
         inkscape:connector-curvature="0" />
      <g
         id="g5415"
         transform="translate(-0.49476654,2.400811)">
        <rect
           style="opacity:1;fill:#d3bc5f;fill-opacity:1;stroke:#000000;stroke-width:1.29999995;stroke-linecap:round;stroke-linejoin:round;stroke-miterlimit:4;stroke-dasharray:none;stroke-dashoffset:0;stroke-opacity:1"
           id="rect5417"
           width="41.972069"
           height="15.085891"
           x="635.3606"
           y="1205.0841"
           ry="3.10991" />
        <rect
           ry="0"
           y="1196.559"
           x="639.42657"
           height="15.152389"
           width="33.840111"
           id="rect5419"
           style="opacity:1;fill:#ffffff;fill-opacity:1;stroke:#000000;stroke-width:1.29999995;stroke-linecap:round;stroke-linejoin:round;stroke-miterlimit:4;stroke-dasharray:none;stroke-dashoffset:0;stroke-opacity:1" />
        <rect
           ry="3.10991"
           y="1215.4413"
           x="635.3606"
           height="15.085891"
           width="41.972069"
           id="rect5421"
           style="opacity:1;fill:#ffeeaa;fill-opacity:1;stroke:#000000;stroke-width:1.29999995;stroke-linecap:round;stroke-linejoin:round;stroke-miterlimit:4;stroke-dasharray:none;stroke-dashoffset:0;stroke-opacity:1" />
        <rect
           ry="3.10991"
           y="1207.9412"
           x="632.8606"
           height="15.621451"
           width="46.972092"
           id="rect5423"
           style="opacity:1;fill:#ffeeaa;fill-opacity:1;stroke:#000000;stroke-width:1.29999995;stroke-linecap:round;stroke-linejoin:round;stroke-miterlimit:4;stroke-dasharray:none;stroke-dashoffset:0;stroke-opacity:1" />
        <rect
           style="opacity:1;fill:#ffffff;fill-opacity:1;stroke:#000000;stroke-width:1.29999995;stroke-linecap:round;stroke-linejoin:round;stroke-miterlimit:4;stroke-dasharray:none;stroke-dashoffset:0;stroke-opacity:1"
           id="rect5425"
           width="33.840111"
           height="20.708128"
           x="639.42657"
           y="1226.1598"
           ry="0" />
        <path
           sodipodi:nodetypes="cc"
           inkscape:connector-curvature="0"
           id="path5427"
           d="m 644.9824,1231.736 h 18.97843"
           style="fill:none;fill-rule:evenodd;stroke:#000000;stroke-width:1px;stroke-linecap:butt;stroke-linejoin:miter;stroke-opacity:1" />
        <path
           style="fill:none;fill-rule:evenodd;stroke:#000000;stroke-width:1px;stroke-linecap:butt;stroke-linejoin:miter;stroke-opacity:1"
           d="m 644.9824,1236.5343 h 22.72843"
           id="path5429"
           inkscape:connector-curvature="0" />
        <path
           sodipodi:nodetypes="cc"
           inkscape:connector-curvature="0"
           id="path5431"
           d="m 644.9824,1241.3325 h 16.29986"
           style="fill:none;fill-rule:evenodd;stroke:#000000;stroke-width:1px;stroke-linecap:butt;stroke-linejoin:miter;stroke-opacity:1" />
        <circle
           r="1.9642857"
           cy="1217.1786"
           cx="672.32141"
           id="circle5433"
           style="opacity:1;fill:#000000;fill-opacity:1;stroke:none;stroke-width:1.29999995;stroke-linecap:round;stroke-linejoin:round;stroke-miterlimit:4;stroke-dasharray:none;stroke-dashoffset:0;stroke-opacity:1" />
      </g>
    </g>
    <g
       id="g5437"
       transform="translate(401.75356,-641.533)"
       style="display:inline;fill:url(#pattern14959-3);fill-opacity:1.0">
      <rect
         style="color:#000000;display:inline;overflow:visible;visibility:visible;fill:url(#pattern14959-3);fill-opacity:1.0;fill-rule:nonzero;stroke:#0b280b;stroke-width:2.49583793;stroke-miterlimit:4;stroke-dasharray:none;stroke-dashoffset:0;marker:none;enable-background:accumulate"
         id="rect5439"
         width="39.971428"
         height="77.252121"
         x="687.36249"
         y="-140.57593"
         transform="rotate(90)" />
      <rect
         y="-71.663742"
         x="683.67639"
         height="22.626621"
         width="47.343639"
         id="rect5441"
         style="color:#000000;display:inline;overflow:visible;visibility:visible;fill:url(#pattern14959-3);fill-opacity:1.0;fill-rule:nonzero;stroke:#0b280b;stroke-width:2.49583793;stroke-miterlimit:4;stroke-dasharray:none;stroke-dashoffset:0;marker:none;enable-background:accumulate"
         transform="rotate(90)" />
    </g>
    <path
       sodipodi:type="star"
       style="display:inline;opacity:1;fill:#ff0000;fill-opacity:1;stroke:#000000;stroke-width:7.47155905;stroke-linecap:round;stroke-linejoin:round;stroke-miterlimit:4;stroke-dasharray:none;stroke-dashoffset:0;stroke-opacity:1"
       id="path5443"
       sodipodi:sides="3"
       sodipodi:cx="33.57143"
       sodipodi:cy="365.2193"
       sodipodi:r1="27.19919"
       sodipodi:r2="13.599595"
       sodipodi:arg1="0.52359878"
       sodipodi:arg2="1.5707963"
       inkscape:flatsided="true"
       inkscape:rounded="0"
       inkscape:randomized="0"
       d="m 57.12662,378.81889 -47.110379,0 23.555189,-40.79878 z"
       transform="matrix(0,0.16341147,-0.30349061,0,570.881,60.329291)"
       inkscape:transform-center-x="-2.0636753" />
    <g
       style="display:inline"
       id="g5445"
       transform="translate(-134.83209,-1158.299)">
      <path
         inkscape:connector-curvature="0"
         id="path5447"
         d="m 619.171,1187.4334 v 73.3617 h 8.32082 58.08352 6.95741 v -73.3617 h -6.95741 -58.08352 z"
         style="color:#000000;display:inline;overflow:visible;visibility:visible;fill:#93ac93;fill-opacity:1;fill-rule:nonzero;stroke:#0b280b;stroke-width:2.63824439;stroke-miterlimit:4;stroke-dasharray:none;stroke-dashoffset:0;marker:none;enable-background:accumulate" />
      <g
         transform="translate(-0.49476654,2.400811)"
         id="g5449">
        <rect
           ry="3.10991"
           y="1205.0841"
           x="635.3606"
           height="15.085891"
           width="41.972069"
           id="rect5451"
           style="opacity:1;fill:#d3bc5f;fill-opacity:1;stroke:#000000;stroke-width:1.29999995;stroke-linecap:round;stroke-linejoin:round;stroke-miterlimit:4;stroke-dasharray:none;stroke-dashoffset:0;stroke-opacity:1" />
        <rect
           style="opacity:1;fill:#ffffff;fill-opacity:1;stroke:#000000;stroke-width:1.29999995;stroke-linecap:round;stroke-linejoin:round;stroke-miterlimit:4;stroke-dasharray:none;stroke-dashoffset:0;stroke-opacity:1"
           id="rect5453"
           width="33.840111"
           height="15.152389"
           x="639.42657"
           y="1196.559"
           ry="0" />
        <rect
           style="opacity:1;fill:#ffeeaa;fill-opacity:1;stroke:#000000;stroke-width:1.29999995;stroke-linecap:round;stroke-linejoin:round;stroke-miterlimit:4;stroke-dasharray:none;stroke-dashoffset:0;stroke-opacity:1"
           id="rect5455"
           width="41.972069"
           height="15.085891"
           x="635.3606"
           y="1215.4413"
           ry="3.10991" />
        <rect
           style="opacity:1;fill:#ffeeaa;fill-opacity:1;stroke:#000000;stroke-width:1.29999995;stroke-linecap:round;stroke-linejoin:round;stroke-miterlimit:4;stroke-dasharray:none;stroke-dashoffset:0;stroke-opacity:1"
           id="rect5457"
           width="46.972092"
           height="15.621451"
           x="632.8606"
           y="1207.9412"
           ry="3.10991" />
        <rect
           ry="0"
           y="1226.1598"
           x="639.42657"
           height="20.708128"
           width="33.840111"
           id="rect5459"
           style="opacity:1;fill:#ffffff;fill-opacity:1;stroke:#000000;stroke-width:1.29999995;stroke-linecap:round;stroke-linejoin:round;stroke-miterlimit:4;stroke-dasharray:none;stroke-dashoffset:0;stroke-opacity:1" />
        <path
           style="fill:none;fill-rule:evenodd;stroke:#000000;stroke-width:1px;stroke-linecap:butt;stroke-linejoin:miter;stroke-opacity:1"
           d="m 644.9824,1231.736 h 18.97843"
           id="path5461"
           inkscape:connector-curvature="0"
           sodipodi:nodetypes="cc" />
        <path
           inkscape:connector-curvature="0"
           id="path5463"
           d="m 644.9824,1236.5343 h 22.72843"
           style="fill:none;fill-rule:evenodd;stroke:#000000;stroke-width:1px;stroke-linecap:butt;stroke-linejoin:miter;stroke-opacity:1" />
        <path
           style="fill:none;fill-rule:evenodd;stroke:#000000;stroke-width:1px;stroke-linecap:butt;stroke-linejoin:miter;stroke-opacity:1"
           d="m 644.9824,1241.3325 h 16.29986"
           id="path5465"
           inkscape:connector-curvature="0"
           sodipodi:nodetypes="cc" />
        <circle
           style="opacity:1;fill:#000000;fill-opacity:1;stroke:none;stroke-width:1.29999995;stroke-linecap:round;stroke-linejoin:round;stroke-miterlimit:4;stroke-dasharray:none;stroke-dashoffset:0;stroke-opacity:1"
           id="circle5467"
           cx="672.32141"
           cy="1217.1786"
           r="1.9642857" />
      </g>
    </g>
    <rect
       transform="scale(-1)"
       style="opacity:1;fill:url(#pattern14959-3);fill-opacity:1.0;stroke:#000000;stroke-width:1.99999988;stroke-linecap:round;stroke-linejoin:round;stroke-miterlimit:4;stroke-dasharray:none;stroke-dashoffset:0;stroke-opacity:1"
       id="rect43110"
       width="163.13191"
       height="34"
       x="-687.60455"
       y="-185.94022"
       ry="3.5245645" />
    <g
       id="g6184"
       transform="translate(569.38595,-538.408)"
       style="display:inline;fill:url(#pattern14959-3);fill-opacity:1.0">
      <rect
         style="color:#000000;display:inline;overflow:visible;visibility:visible;fill:url(#pattern14959-3);fill-opacity:1.0;fill-rule:nonzero;stroke:#0b280b;stroke-width:2.49583793;stroke-miterlimit:4;stroke-dasharray:none;stroke-dashoffset:0;marker:none;enable-background:accumulate"
         id="rect6186"
         width="39.971428"
         height="77.252121"
         x="687.36249"
         y="-140.57593"
         transform="rotate(90)" />
      <rect
         y="-71.663742"
         x="683.67639"
         height="22.626621"
         width="47.343639"
         id="rect6188"
         style="color:#000000;display:inline;overflow:visible;visibility:visible;fill:url(#pattern14959-3);fill-opacity:1.0;fill-rule:nonzero;stroke:#0b280b;stroke-width:2.49583793;stroke-miterlimit:4;stroke-dasharray:none;stroke-dashoffset:0;marker:none;enable-background:accumulate"
         transform="rotate(90)" />
    </g>
    <path
       sodipodi:type="star"
       style="display:inline;opacity:1;fill:#ff0000;fill-opacity:1;stroke:#000000;stroke-width:7.47155905;stroke-linecap:round;stroke-linejoin:round;stroke-miterlimit:4;stroke-dasharray:none;stroke-dashoffset:0;stroke-opacity:1"
       id="path6198"
       sodipodi:sides="3"
       sodipodi:cx="33.57143"
       sodipodi:cy="365.2193"
       sodipodi:r1="27.19919"
       sodipodi:r2="13.599595"
       sodipodi:arg1="0.52359878"
       sodipodi:arg2="1.5707963"
       inkscape:flatsided="true"
       inkscape:rounded="0"
       inkscape:randomized="0"
       d="m 57.12662,378.81889 -47.110379,0 23.555189,-40.79878 z"
       transform="matrix(0,0.16341147,-0.30349061,0,738.51339,163.45429)"
       inkscape:transform-center-x="-2.0636753" />
    <g
       style="display:inline"
       id="g6291"
       transform="translate(32.8003,-1055.174)">
      <path
         inkscape:connector-curvature="0"
         id="path6212"
         d="m 619.171,1187.4334 v 73.3617 h 8.32082 58.08352 6.95741 v -73.3617 h -6.95741 -58.08352 z"
         style="color:#000000;display:inline;overflow:visible;visibility:visible;fill:#93ac93;fill-opacity:1;fill-rule:nonzero;stroke:#0b280b;stroke-width:2.63824439;stroke-miterlimit:4;stroke-dasharray:none;stroke-dashoffset:0;marker:none;enable-background:accumulate" />
      <g
         transform="translate(-0.49476654,2.400811)"
         id="g6280">
        <rect
           ry="3.10991"
           y="1205.0841"
           x="635.3606"
           height="15.085891"
           width="41.972069"
           id="rect6256"
           style="opacity:1;fill:#d3bc5f;fill-opacity:1;stroke:#000000;stroke-width:1.29999995;stroke-linecap:round;stroke-linejoin:round;stroke-miterlimit:4;stroke-dasharray:none;stroke-dashoffset:0;stroke-opacity:1" />
        <rect
           style="opacity:1;fill:#ffffff;fill-opacity:1;stroke:#000000;stroke-width:1.29999995;stroke-linecap:round;stroke-linejoin:round;stroke-miterlimit:4;stroke-dasharray:none;stroke-dashoffset:0;stroke-opacity:1"
           id="rect6228"
           width="33.840111"
           height="15.152389"
           x="639.42657"
           y="1196.559"
           ry="0" />
        <rect
           style="opacity:1;fill:#ffeeaa;fill-opacity:1;stroke:#000000;stroke-width:1.29999995;stroke-linecap:round;stroke-linejoin:round;stroke-miterlimit:4;stroke-dasharray:none;stroke-dashoffset:0;stroke-opacity:1"
           id="rect6258"
           width="41.972069"
           height="15.085891"
           x="635.3606"
           y="1215.4413"
           ry="3.10991" />
        <rect
           style="opacity:1;fill:#ffeeaa;fill-opacity:1;stroke:#000000;stroke-width:1.29999995;stroke-linecap:round;stroke-linejoin:round;stroke-miterlimit:4;stroke-dasharray:none;stroke-dashoffset:0;stroke-opacity:1"
           id="rect6226"
           width="46.972092"
           height="15.621451"
           x="632.8606"
           y="1207.9412"
           ry="3.10991" />
        <rect
           ry="0"
           y="1226.1598"
           x="639.42657"
           height="20.708128"
           width="33.840111"
           id="rect6230"
           style="opacity:1;fill:#ffffff;fill-opacity:1;stroke:#000000;stroke-width:1.29999995;stroke-linecap:round;stroke-linejoin:round;stroke-miterlimit:4;stroke-dasharray:none;stroke-dashoffset:0;stroke-opacity:1" />
        <path
           style="fill:none;fill-rule:evenodd;stroke:#000000;stroke-width:1px;stroke-linecap:butt;stroke-linejoin:miter;stroke-opacity:1"
           d="m 644.9824,1231.736 h 18.97843"
           id="path6232"
           inkscape:connector-curvature="0"
           sodipodi:nodetypes="cc" />
        <path
           inkscape:connector-curvature="0"
           id="path6234"
           d="m 644.9824,1236.5343 h 22.72843"
           style="fill:none;fill-rule:evenodd;stroke:#000000;stroke-width:1px;stroke-linecap:butt;stroke-linejoin:miter;stroke-opacity:1" />
        <path
           style="fill:none;fill-rule:evenodd;stroke:#000000;stroke-width:1px;stroke-linecap:butt;stroke-linejoin:miter;stroke-opacity:1"
           d="m 644.9824,1241.3325 h 16.29986"
           id="path6236"
           inkscape:connector-curvature="0"
           sodipodi:nodetypes="cc" />
        <circle
           style="opacity:1;fill:#000000;fill-opacity:1;stroke:none;stroke-width:1.29999995;stroke-linecap:round;stroke-linejoin:round;stroke-miterlimit:4;stroke-dasharray:none;stroke-dashoffset:0;stroke-opacity:1"
           id="path6238"
           cx="672.32141"
           cy="1217.1786"
           r="1.9642857" />
      </g>
    </g>
    <g
       id="g19043"
       transform="translate(401.75356,-538.40797)"
       style="display:inline;fill:url(#pattern14959-3);fill-opacity:1.0;stroke:#000000">
      <rect
         style="color:#000000;display:inline;overflow:visible;visibility:visible;fill:url(#pattern14959-3);fill-opacity:1.0;fill-rule:nonzero;stroke:#000000;stroke-width:2.49583793;stroke-miterlimit:4;stroke-dasharray:none;stroke-dashoffset:0;marker:none;enable-background:accumulate"
         id="rect19039"
         width="39.971428"
         height="77.252121"
         x="687.36249"
         y="-140.57593"
         transform="rotate(90)" />
      <rect
         y="-71.663742"
         x="683.67639"
         height="22.626621"
         width="47.343639"
         id="rect19041"
         style="color:#000000;display:inline;overflow:visible;visibility:visible;fill:url(#pattern14959-3);fill-opacity:1.0;fill-rule:nonzero;stroke:#000000;stroke-width:2.49583793;stroke-miterlimit:4;stroke-dasharray:none;stroke-dashoffset:0;marker:none;enable-background:accumulate"
         transform="rotate(90)" />
    </g>
    <path
       sodipodi:type="star"
       style="display:inline;opacity:1;fill:#ff0000;fill-opacity:1;stroke:#000000;stroke-width:7.47155905;stroke-linecap:round;stroke-linejoin:round;stroke-miterlimit:4;stroke-dasharray:none;stroke-dashoffset:0;stroke-opacity:1"
       id="path19045"
       sodipodi:sides="3"
       sodipodi:cx="33.57143"
       sodipodi:cy="365.2193"
       sodipodi:r1="27.19919"
       sodipodi:r2="13.599595"
       sodipodi:arg1="0.52359878"
       sodipodi:arg2="1.5707963"
       inkscape:flatsided="true"
       inkscape:rounded="0"
       inkscape:randomized="0"
       d="m 57.12662,378.81889 -47.110379,0 23.555189,-40.79878 z"
       transform="matrix(0,0.16341147,-0.30349061,0,570.881,163.45424)"
       inkscape:transform-center-x="-2.0636749" />
    <g
       style="display:inline;fill:url(#pattern14959-3);fill-opacity:1.0;stroke:#000000"
       transform="translate(401.88472,-538.40797)"
       id="g19053">
      <rect
         style="color:#000000;display:inline;overflow:visible;visibility:visible;fill:url(#pattern14959-3);fill-opacity:1.0;fill-rule:nonzero;stroke:#000000;stroke-width:2.49583793;stroke-miterlimit:4;stroke-dasharray:none;stroke-dashoffset:0;marker:none;enable-background:accumulate"
         id="rect19049"
         width="39.971428"
         height="77.252121"
         x="687.36249"
         y="97.915009"
         transform="matrix(0,1,1,0,0,0)" />
      <rect
         y="166.82719"
         x="683.67639"
         height="22.626621"
         width="47.343639"
         id="rect19051"
         style="color:#000000;display:inline;overflow:visible;visibility:visible;fill:url(#pattern14959-3);fill-opacity:1.0;fill-rule:nonzero;stroke:#000000;stroke-width:2.49583793;stroke-miterlimit:4;stroke-dasharray:none;stroke-dashoffset:0;marker:none;enable-background:accumulate"
         transform="matrix(0,1,1,0,0,0)" />
    </g>
    <path
       sodipodi:type="star"
       style="display:inline;opacity:1;fill:#00ff00;fill-opacity:1;stroke:#000000;stroke-width:7.47155905;stroke-linecap:round;stroke-linejoin:round;stroke-miterlimit:4;stroke-dasharray:none;stroke-dashoffset:0;stroke-opacity:1"
       id="path19055"
       sodipodi:sides="3"
       sodipodi:cx="33.57143"
       sodipodi:cy="365.2193"
       sodipodi:r1="27.19919"
       sodipodi:r2="13.599595"
       sodipodi:arg1="0.52359878"
       sodipodi:arg2="1.5707963"
       inkscape:flatsided="true"
       inkscape:rounded="0"
       inkscape:randomized="0"
       d="m 57.12662,378.81889 -47.110379,0 23.555189,-40.79878 z"
       transform="matrix(0,0.16341147,-0.30349061,0,688.80221,163.45415)"
       inkscape:transform-center-x="-2.063677" />
    <path
       inkscape:connector-curvature="0"
       id="path42910"
       d="m 484.78845,132.25939 v 73.3617 h 8.32082 58.08352 6.95741 v -73.3617 h -6.95741 -58.08352 z"
       style="color:#000000;display:inline;overflow:visible;visibility:visible;fill:#93ac93;fill-opacity:1;fill-rule:nonzero;stroke:#0b280b;stroke-width:2.63824439;stroke-miterlimit:4;stroke-dasharray:none;stroke-dashoffset:0;marker:none;enable-background:accumulate" />
    <g
       id="text9706"
       style="font-style:normal;font-weight:normal;line-height:0%;font-family:sans-serif;letter-spacing:0px;word-spacing:0px;fill:#ffff00;fill-opacity:1;stroke:#000000;stroke-width:0.55497342"
       transform="matrix(1.95152,0,0,1.4798001,-311.16073,-1253.1547)"
       aria-label="〈  〉">
      <path
         inkscape:connector-curvature="0"
         id="path9935"
         style="font-size:22.19893646px;line-height:1.25;fill:#ffff00;stroke:#000000;stroke-width:0.55497342"
         d="m 412.21991,961.00831 6.2157,-9.70093 -1.39853,-0.64377 -6.59308,10.3447 6.59308,10.34471 1.39853,-0.64377 z" />
      <path
         inkscape:connector-curvature="0"
         id="path9937"
         style="font-size:22.19893646px;line-height:1.25;fill:#ffff00;stroke:#000000;stroke-width:0.55497342"
         d="m 436.27732,971.35302 6.59308,-10.34471 -6.59308,-10.3447 -1.39854,0.64377 6.2157,9.70093 -6.2157,9.70094 z" />
    </g>
    <path
       inkscape:connector-curvature="0"
       id="circle9708"
       d="m 512.12569,168.94545 a 4.1488528,4.1488528 0 0 1 -4.14886,4.14884 4.1488528,4.1488528 0 0 1 -4.14886,-4.14884 4.1488528,4.1488528 0 0 1 4.14886,-4.14886 4.1488528,4.1488528 0 0 1 4.14886,4.14886 z"
       style="fill:#ffffff;fill-opacity:1;stroke:#000000;stroke-width:0.9957248;stroke-linecap:round;stroke-miterlimit:4;stroke-dasharray:none;stroke-dashoffset:0" />
    <path
       inkscape:connector-curvature="0"
       id="circle9710"
       d="m 524.47267,168.94545 a 4.1488528,4.1488528 0 0 1 -4.14886,4.14884 4.1488528,4.1488528 0 0 1 -4.14885,-4.14884 4.1488528,4.1488528 0 0 1 4.14885,-4.14886 4.1488528,4.1488528 0 0 1 4.14886,4.14886 z"
       style="fill:#ffffff;fill-opacity:1;stroke:#000000;stroke-width:0.9957248;stroke-linecap:round;stroke-miterlimit:4;stroke-dasharray:none;stroke-dashoffset:0" />
    <path
       inkscape:connector-curvature="0"
       id="circle9712"
       d="m 536.81966,168.94545 a 4.1488528,4.1488528 0 0 1 -4.14886,4.14884 4.1488528,4.1488528 0 0 1 -4.14886,-4.14884 4.1488528,4.1488528 0 0 1 4.14886,-4.14886 4.1488528,4.1488528 0 0 1 4.14886,4.14886 z"
       style="fill:#ffffff;fill-opacity:1;stroke:#000000;stroke-width:0.9957248;stroke-linecap:round;stroke-miterlimit:4;stroke-dasharray:none;stroke-dashoffset:0" />
    <text
       xml:space="preserve"
       style="font-style:normal;font-weight:normal;font-size:21.9113102px;line-height:1.25;font-family:sans-serif;letter-spacing:0px;word-spacing:0px;fill:#ff0000;fill-opacity:1;stroke:none;stroke-width:0.54778272"
       x="499.6752"
       y="176.53548"
       id="text42896"><tspan
         sodipodi:role="line"
         id="tspan42894"
         x="499.6752"
         y="176.53548"
         style="font-weight:bold;fill:#ff0000;stroke-width:0.54778272">X</tspan></text>
  </g>
</svg>
